<?xml version="1.0" encoding="UTF-8"?>
<svg width="20px" height="20px" viewBox="0 0 20 20" version="1.1" xmlns="http://www.w3.org/2000/svg" xmlns:xlink="http://www.w3.org/1999/xlink">
    <title>icon/color/Electron</title>
    <g id="页面-1" stroke="none" stroke-width="1" fill="none" fill-rule="evenodd">
        <g id="icon-&amp;-Logo2" transform="translate(-88.000000, -303.000000)" fill-rule="nonzero">
            <g id="icon/color/Electron" transform="translate(88.000000, 303.000000)">
                <rect fill="#D8D8D8" opacity="0" x="0" y="0" width="20" height="20"></rect>
                <g id="Electron_Software_Framework_Logo" transform="translate(1.428571, 1.428571)">
                    <circle id="椭圆形" fill="#5C5F61" cx="8.57142857" cy="8.57142857" r="8.57142857"></circle>
                    <g id="编组" transform="translate(2.343750, 1.875000)" fill="#9FEAF9">
                        <path d="M4.38629464,2.92566964 C2.64488839,2.60852679 1.26796875,2.94046875 0.719196429,3.89095982 C0.309709821,4.60024554 0.426763393,5.540625 1.003125,6.54582589 C1.03410502,6.6026552 1.09340785,6.63827505 1.1581296,6.63893751 C1.22285135,6.63958169 1.28286113,6.60516622 1.31498203,6.54897387 C1.34710292,6.49278153 1.34630705,6.42360808 1.31290179,6.36816964 C0.793794643,5.46267857 0.692745536,4.65113839 1.02850446,4.06955357 C1.48439732,3.27997768 2.71252232,2.98386161 4.32227679,3.27703125 C4.41852501,3.29305579 4.50981883,3.22886789 4.52730866,3.13287511 C4.54479848,3.03688234 4.48200966,2.94462068 4.38629464,2.92566964 L4.38629464,2.92566964 Z M1.90868304,7.76765625 C2.6128125,8.54142857 3.52761161,9.26725446 4.57091518,9.86953125 C7.09700893,11.3280134 9.78629464,11.7178125 11.1116518,10.8141295 C11.165607,10.7786966 11.1962434,10.7169065 11.1917844,10.652511 C11.1873254,10.5881156 11.1484651,10.5311377 11.0901412,10.5034794 C11.0318173,10.4758212 10.9631077,10.4817874 10.9104241,10.5190848 C9.72421875,11.3278795 7.16966518,10.957567 4.74950893,9.56029018 C3.73741071,8.97595982 2.85154018,8.27310268 2.17285714,7.52725446 C2.1299862,7.47977426 2.06499446,7.45885003 2.00247488,7.47239952 C1.93995529,7.48594901 1.88945757,7.53190257 1.87009012,7.59287133 C1.85072266,7.65384009 1.8654438,7.7205112 1.90868304,7.76765625 L1.90868304,7.76765625 Z" id="形状"></path>
                        <path d="M10.6888393,7.55042411 C11.8291071,6.20337054 12.2272098,4.84854911 11.6795759,3.90006696 C11.2766518,3.20209821 10.4247991,2.83359375 9.29263393,2.81886161 C9.19500284,2.81900518 9.11558084,2.89752163 9.11430251,2.99514466 C9.11305468,3.09276768 9.1904187,3.17331268 9.28801339,3.17598214 C10.3062054,3.18924107 11.0401339,3.50671875 11.3703348,4.07866071 C11.8251563,4.86649554 11.4701116,6.07466518 10.4162277,7.31966518 C10.3741455,7.36826075 10.3614268,7.43572302 10.3829255,7.49630556 C10.4044243,7.5568881 10.456823,7.60124232 10.5201242,7.61244079 C10.5834253,7.62363926 10.6478608,7.59995393 10.6888393,7.55042411 Z M7.75841518,2.98513393 C6.72743304,3.20604911 5.63002232,3.63796875 4.57613839,4.24640625 C1.96841518,5.75196429 0.267321429,7.97203125 0.503571429,9.58178571 C0.512143742,9.64553457 0.554334406,9.69974896 0.614024839,9.72371672 C0.673715272,9.74768449 0.741682994,9.73770249 0.791961519,9.69758427 C0.842240044,9.65746606 0.867061081,9.59341008 0.856941964,9.52988839 C0.647142857,8.10060268 2.25964286,5.99625 4.75473214,4.55571429 C5.77707589,3.96542411 6.83966518,3.54723214 7.83321429,3.33435268 C7.89649973,3.32187869 7.94814123,3.27624882 7.96831294,3.21498097 C7.98848465,3.15371312 7.97405166,3.08632901 7.93055498,3.03869828 C7.8870583,2.99106755 7.82125781,2.97059256 7.75841518,2.98513393 L7.75841518,2.98513393 Z" id="形状"></path>
                        <path d="M3.53370536,10.6977455 C4.12995536,12.3624777 5.10529018,13.3875 6.20203125,13.3875 C7.00191964,13.3875 7.74194196,12.8422098 8.31904018,11.8822768 C8.3530331,11.8275507 8.35491706,11.7587584 8.32397033,11.7022538 C8.29302359,11.6457493 8.23404334,11.6102915 8.16962455,11.609464 C8.10520576,11.6086366 8.04533425,11.6425679 8.01294643,11.6982589 C7.49430804,12.5609598 6.85727679,13.0303125 6.20203125,13.0303125 C5.29098214,13.0303125 4.42104911,12.1161161 3.87,10.5774107 C3.84945649,10.5160837 3.79736184,10.4706558 3.73380967,10.4586491 C3.6702575,10.4466424 3.60518002,10.4699334 3.5636785,10.5195385 C3.52217698,10.5691435 3.51073746,10.6373102 3.53377232,10.6977455 L3.53370536,10.6977455 Z M8.979375,10.3720982 C9.28808036,9.38584821 9.45381696,8.248125 9.45381696,7.06252232 C9.45381696,4.10410714 8.41834821,1.55383929 6.94352679,0.898995536 C6.85391069,0.861460399 6.75072912,0.902451743 6.71130279,0.991252062 C6.67187647,1.08005238 6.71067144,1.18407968 6.79861607,1.22537946 C8.11399554,1.80950893 9.09662946,4.22979911 9.09662946,7.06252232 C9.09662946,8.21276786 8.93611607,9.31453125 8.63859375,10.2654241 C8.61847841,10.3266162 8.63287301,10.393899 8.67626464,10.4415044 C8.71965627,10.4891097 8.78532092,10.5096605 8.8481101,10.4952863 C8.91089927,10.480912 8.96108309,10.43384 8.97944196,10.3720982 L8.979375,10.3720982 Z M12.3425893,10.1971875 C12.3425893,9.72515625 11.9599554,9.34252232 11.4879241,9.34252232 C11.0158929,9.34252232 10.6332589,9.72515625 10.6332589,10.1971875 C10.6332589,10.6692188 11.0158929,11.0518527 11.4879241,11.0518527 C11.9599554,11.0518527 12.3425893,10.6692188 12.3425893,10.1971875 Z M11.9854688,10.1971875 C11.9854688,10.3749431 11.8906373,10.539196 11.7366964,10.6280738 C11.5827556,10.7169516 11.3930926,10.7169516 11.2391518,10.6280738 C11.0852109,10.539196 10.9903795,10.3749431 10.9903795,10.1971875 C10.9903795,9.92240118 11.2131378,9.69964286 11.4879241,9.69964286 C11.7627104,9.69964286 11.9854688,9.92240118 11.9854688,10.1971875 L11.9854688,10.1971875 Z M0.903816964,11.0518527 C1.37591518,11.0518527 1.75854911,10.6692188 1.75854911,10.1971875 C1.75854911,9.72515625 1.37584821,9.34252232 0.903816964,9.34252232 C0.431852679,9.34252232 0.0491517857,9.72515625 0.0491517857,10.1971875 C0.0491517857,10.6692188 0.431852679,11.0518527 0.903816964,11.0518527 Z M0.903816964,10.6947321 C0.629030646,10.6947321 0.406272321,10.4719738 0.406272321,10.1971875 C0.406272321,9.92240118 0.629030646,9.69964286 0.903816964,9.69964286 C1.17860328,9.69964286 1.40136161,9.92240118 1.40136161,10.1971875 C1.40136161,10.4719738 1.17860328,10.6947321 0.903816964,10.6947321 L0.903816964,10.6947321 Z" id="形状"></path>
                        <path d="M6.20203125,1.77080357 C6.6740625,1.77080357 7.05669643,1.38816964 7.05669643,0.916138393 C7.05669643,0.444107143 6.6740625,0.0614732143 6.20203125,0.0614732143 C5.73,0.0614732143 5.34736607,0.444107143 5.34736607,0.916138393 C5.34736607,1.38816964 5.73,1.77080357 6.20203125,1.77080357 L6.20203125,1.77080357 Z M6.20203125,1.41368304 C5.92724493,1.41368304 5.70448661,1.19092471 5.70448661,0.916138393 C5.70448661,0.641352074 5.92724493,0.41859375 6.20203125,0.41859375 C6.47681757,0.41859375 6.69957589,0.641352074 6.69957589,0.916138393 C6.69957589,1.19092471 6.47681757,1.41368304 6.20203125,1.41368304 L6.20203125,1.41368304 Z M6.33254464,7.66694196 C5.99872768,7.7390625 5.66986607,7.52691964 5.59761161,7.19310268 C5.52556339,6.85930354 5.73767924,6.53027815 6.07145089,6.45810268 C6.40526786,6.38598214 6.73412946,6.598125 6.80645089,6.93194196 C6.87857143,7.26575893 6.66642857,7.5946875 6.33254464,7.66694196 L6.33254464,7.66694196 Z" id="形状"></path>
                    </g>
                </g>
            </g>
        </g>
    </g>
</svg>