<?xml version="1.0" encoding="UTF-8"?>
<svg width="20px" height="20px" viewBox="0 0 20 20" version="1.1" xmlns="http://www.w3.org/2000/svg" xmlns:xlink="http://www.w3.org/1999/xlink">
    <title>icon/selected/Android</title>
    <g id="页面-1" stroke="none" stroke-width="1" fill="none" fill-rule="evenodd">
        <g id="icon-&amp;-Logo2" transform="translate(-88.000000, -78.000000)" fill-rule="nonzero">
            <g id="icon/selected/Android" transform="translate(88.000000, 78.000000)">
                <rect fill="#D8D8D8" opacity="0" x="0" y="0" width="20" height="20"></rect>
                <path d="M13.238583,3.44233827 C14.3026049,4.32979049 14.8912494,5.63394427 14.9049787,6.97819901 L5.75953827,6.97819901 C5.77498374,5.64266188 6.35676349,4.3454822 7.40877231,3.45628645 L6.46831419,1.79994142 C6.40138378,1.68138199 6.44085556,1.52969564 6.55755475,1.46169833 C6.59531036,1.44077607 6.6364983,1.42857143 6.67940241,1.42857143 C6.7669268,1.42857143 6.84758652,1.4756465 6.89049064,1.55236143 L7.80177397,3.15640081 C9.32916035,2.12597986 11.3147626,2.12249282 12.8455813,3.14593968 L13.75,1.55410495 C13.7946203,1.47739001 13.8735638,1.43031494 13.9610882,1.43031494 C14.0022762,1.43031494 14.0451803,1.44251958 14.0812197,1.46344184 C14.1979189,1.53318269 14.2373907,1.68312551 14.1704603,1.80168494 L13.238583,3.44233827 Z M8.26513838,5.45959216 C8.56546715,5.45959216 8.80744634,5.21375567 8.80744634,4.90863949 C8.80744634,4.60352332 8.56375099,4.35768684 8.26513838,4.35768684 C7.96480961,4.35768684 7.72283042,4.60526683 7.72283042,4.90863949 C7.72283042,5.21375568 7.96652577,5.45959216 8.26513838,5.45959216 L8.26513838,5.45959216 Z M12.3032734,5.45959216 C12.601886,5.45959216 12.8455813,5.21375567 12.8455813,4.90863949 C12.8455813,4.60352332 12.601886,4.35768684 12.3032734,4.35768684 C12.0029446,4.35768684 11.7609654,4.60526683 11.7609654,4.90863949 C11.7609654,5.21375568 12.0046607,5.45959216 12.3032734,5.45959216 Z M5.75953827,7.57099618 L14.9066948,7.57099618 L14.9066948,14.466622 C14.9066948,14.8536837 14.7556724,15.2233102 14.4862345,15.497043 C14.2185129,15.7707758 13.8529699,15.9242057 13.4719814,15.9242057 L13.1064383,15.9242057 L13.1064383,18.4697464 C13.1064383,18.9213184 12.7460438,19.2857143 12.3032734,19.2857143 C11.8587868,19.2857143 11.5001084,18.9195749 11.5001084,18.4697464 L11.5001084,15.9242057 L9.06830335,15.9242057 L9.06830335,18.4697464 C9.06830335,18.9213184 8.70790881,19.2857143 8.26513838,19.2857143 C7.82065179,19.2857143 7.46197342,18.9195749 7.46197342,18.4697464 L7.46197342,15.9242057 L7.19425176,15.9242057 C6.81497942,15.9242057 6.44943638,15.7707758 6.17999856,15.497043 C5.91056075,15.2233102 5.75953827,14.8536837 5.75953827,14.466622 L5.75953827,7.57099618 Z M16.3396922,12.9079142 C15.8969217,12.9079142 15.5382434,12.5435183 15.5365272,12.0936899 L15.5365272,8.38696404 C15.5382434,7.9371356 15.8969217,7.57273969 16.3396922,7.57099618 C16.7824626,7.57273969 17.141141,7.9371356 17.1428571,8.38696404 L17.1428571,12.0919463 C17.1428571,12.5435183 16.7824626,12.9079142 16.3396922,12.9079142 Z M4.37459355,7.57099618 C4.81736399,7.57273969 5.17432619,7.9371356 5.17775852,8.38696404 L5.17775852,12.0936899 C5.17604236,12.5435183 4.81736399,12.9079142 4.37459355,12.9096577 C3.9318231,12.9079142 3.57314473,12.5435183 3.57142857,12.0936899 L3.57142857,8.38696404 C3.57314474,7.9371356 3.93182312,7.57273969 4.37459355,7.57099618 Z" id="Combined-Shape" fill="#3DDC84"></path>
            </g>
        </g>
    </g>
</svg>