<?xml version="1.0" encoding="UTF-8"?>
<svg width="20px" height="20px" viewBox="0 0 20 20" version="1.1" xmlns="http://www.w3.org/2000/svg" xmlns:xlink="http://www.w3.org/1999/xlink">
    <title>icon/gray/macOS</title>
    <g id="页面-1" stroke="none" stroke-width="1" fill="none" fill-rule="evenodd">
        <g id="icon-&amp;-Logo2" transform="translate(-88.000000, -144.000000)" fill-rule="nonzero">
            <g id="icon/gray/macOS" transform="translate(88.000000, 144.000000)">
                <rect fill="#D8D8D8" opacity="0" x="0" y="0" width="20" height="20"></rect>
                <g id="macOS" transform="translate(1.000000, 1.000000)" fill="#5C5F61">
                    <path d="M9,0 C3.97744529,0 0,3.97744529 0,9 C0,14.0225547 3.97744529,18 9,18 C14.0225547,18 18,14.0225547 18,9 C18,3.97744529 14.0225547,0 9,0 Z M9.86467173,5.34435016 L9.86467173,5.17909781 L9.35328272,5.21482805 C9.20812863,5.22376061 9.09870478,5.25502456 9.02501117,5.30638678 C8.95131755,5.35998213 8.91558732,5.43144261 8.91558732,5.52523448 C8.91558732,5.61679321 8.95131755,5.68825368 9.02501117,5.74184904 C9.09647164,5.79544439 9.19472979,5.82224207 9.31531934,5.82224207 C9.39347923,5.82224207 9.46493971,5.81107637 9.5319339,5.78651184 C9.59892809,5.7619473 9.65698973,5.73068334 9.7061188,5.68825368 C9.75524788,5.64582403 9.79321126,5.59669495 9.82224207,5.53863332 C9.85127289,5.47833854 9.86467173,5.41357749 9.86467173,5.34435016 L9.86467173,5.34435016 Z M5.99910674,14.1205895 C4.15453327,14.1205895 3,12.8387673 3,10.7954444 C3,8.75212148 4.15453327,7.46583296 5.99910674,7.46583296 C7.84368021,7.46583296 8.99374721,8.75212148 8.99374721,10.7954444 C8.99374721,12.8387673 7.84144707,14.1205895 5.99910674,14.1205895 Z M12.0643144,14.1205895 C10.6574364,14.1205895 9.70165252,13.3836534 9.63689147,12.226887 L10.5524788,12.226887 C10.6239393,12.8878964 11.2626172,13.3255918 12.138008,13.3255918 C12.9776686,13.3255918 13.5806163,12.8878964 13.5806163,12.2894149 C13.5806163,11.7713265 13.2143814,11.4586869 12.3657883,11.2443055 L11.5395266,11.0388566 C10.3514962,10.7440822 9.81107637,10.2036623 9.81107637,9.31487271 C9.81107637,8.22063421 10.7668602,7.46136668 12.1268423,7.46136668 C13.4577937,7.46136668 14.3845467,8.22510049 14.4202769,9.32380527 L13.5136222,9.32380527 C13.4510942,8.66279589 12.9106744,8.25636445 12.1067441,8.25636445 C11.30728,8.25636445 10.7534614,8.66726217 10.7534614,9.26127736 C10.7534614,9.73023671 11.1018312,10.007146 11.9504243,10.2215275 L12.6471639,10.3957124 C13.973649,10.7172845 14.5185351,11.2398392 14.5185351,12.1777579 C14.5185351,13.3747209 13.5739169,14.1205895 12.0643144,14.1205895 L12.0643144,14.1205895 Z M5.99910674,8.28539527 C7.25636445,8.28539527 8.05136222,9.25457794 8.05136222,10.7932113 C8.05136222,12.3273783 7.25859759,13.296561 5.99910674,13.296561 C4.73738276,13.296561 3.94685127,12.3296114 3.94685127,10.7932113 C3.94685127,9.25457794 4.73514962,8.28539527 5.99910674,8.28539527 Z M11.7159446,4 C11.849933,4 11.9727557,4.02009826 12.0799464,4.06029477 C12.1893703,4.10049129 12.280929,4.15408665 12.3590889,4.22331398 C12.4372488,4.29030817 12.4975435,4.37070121 12.5444395,4.4600268 C12.5891023,4.55158553 12.6159,4.64761054 12.6248325,4.74810183 L12.2228674,4.74810183 C12.2117017,4.69227334 12.1938365,4.64091112 12.169272,4.59401519 C12.1424743,4.54711925 12.1089772,4.50468959 12.0665476,4.46895936 C12.0241179,4.43322912 11.9727557,4.40643144 11.9169272,4.38633318 C11.8588656,4.36623493 11.7941045,4.35730237 11.722644,4.35730237 C11.6377847,4.35730237 11.5596248,4.37516749 11.4903975,4.40866458 C11.4211702,4.44216168 11.3608754,4.49129075 11.3117463,4.55381867 C11.2626172,4.61634658 11.2246539,4.69227334 11.1978562,4.78383207 C11.1710585,4.87315766 11.1576597,4.97364895 11.1576597,5.0830728 C11.1576597,5.19696293 11.1710585,5.29968736 11.1978562,5.38901295 C11.2246539,5.47833854 11.2626172,5.5542653 11.3139795,5.61679321 C11.3631085,5.67932113 11.4234033,5.72621706 11.4948638,5.75971416 C11.5640911,5.79321126 11.642251,5.80884323 11.7248772,5.80884323 C11.8633318,5.80884323 11.9749888,5.77757928 12.0598481,5.71281822 C12.1469406,5.64805717 12.2027691,5.5542653 12.2295668,5.42920947 L12.6315319,5.42920947 C12.6203662,5.53863332 12.5891023,5.63912461 12.5399732,5.73068334 C12.4908441,5.82224207 12.4260831,5.89816883 12.3501563,5.96292988 C12.2719964,6.02769093 12.1804377,6.07682001 12.073247,6.11031711 C11.9682894,6.14604734 11.849933,6.16391246 11.7248772,6.16391246 C11.5752568,6.16391246 11.4390353,6.13934792 11.3162126,6.09021885 C11.195623,6.04108977 11.0906655,5.9696293 11.003573,5.87583743 C10.9164806,5.78204556 10.8494864,5.67038857 10.8025904,5.53640018 C10.7556945,5.40241179 10.73113,5.25279142 10.73113,5.08530594 C10.7288968,4.91782046 10.7512282,4.77043323 10.7981242,4.63644484 C10.8450201,4.50468959 10.9120143,4.39079946 10.9991067,4.29477445 C11.0861992,4.20098258 11.1889236,4.12728897 11.3095132,4.07592675 C11.4301027,4.02456454 11.5663243,4 11.7159446,4 Z M9.43144261,4 C9.55873158,4 9.67485485,4.01563198 9.77981242,4.04912908 C9.88476999,4.08262617 9.97409558,4.12728897 10.0477892,4.18758374 C10.1214828,4.24787852 10.1773113,4.31933899 10.2175078,4.4041983 C10.2577043,4.48905762 10.2778026,4.58508263 10.2778026,4.68780706 L10.2778026,6.13488164 L9.87583743,6.13488164 L9.87583743,5.7842787 L9.86467173,5.7842787 C9.83564091,5.84010719 9.79767753,5.89370255 9.7507816,5.93836534 C9.70388566,5.98526128 9.65252345,6.02322465 9.59669495,6.05672175 C9.5430996,6.09021885 9.48057168,6.11478339 9.41134435,6.1326485 C9.34435016,6.15051362 9.27288968,6.15944618 9.20366235,6.15944618 C9.09870478,6.15944618 9.00267977,6.1438142 8.91558732,6.11478339 C8.82849486,6.08575257 8.75256811,6.04332291 8.6900402,5.98749442 C8.62751228,5.93389906 8.57838321,5.86690487 8.54265297,5.79097812 C8.50692273,5.71281822 8.48905762,5.62795891 8.48905762,5.53416704 C8.48905762,5.34881644 8.55828495,5.20366235 8.69673962,5.10093792 C8.83519428,4.99598035 9.03394372,4.93568557 9.29522108,4.9200536 L9.86467173,4.8865565 L9.86467173,4.72353729 C9.86467173,4.60294774 9.82670835,4.50915587 9.74854846,4.44662796 C9.67038857,4.38410004 9.56319786,4.35060295 9.42027691,4.35060295 C9.36444841,4.35060295 9.31085306,4.35730237 9.26172398,4.37070121 C9.21259491,4.38410004 9.17016525,4.40643144 9.13220188,4.43099598 C9.0942385,4.45779366 9.06297454,4.48905762 9.03841,4.52702099 C9.01384547,4.56275123 8.99598035,4.60518088 8.98704779,4.64984368 L8.59178205,4.64984368 C8.59401519,4.55605181 8.61634658,4.4711925 8.66100938,4.39079946 C8.70567218,4.31040643 8.76373381,4.24341224 8.83742742,4.1853506 C8.91112104,4.12728897 9.00044663,4.08262617 9.10093792,4.04912908 C9.20142921,4.01786512 9.3130862,4 9.43144261,4 Z M7.3546226,4.00446628 C7.45734703,4.00446628 7.5511389,4.02009826 7.63599821,4.05359536 C7.72085753,4.08709245 7.792318,4.13398839 7.85261277,4.19428316 C7.91290755,4.25457794 7.95980348,4.32827155 7.99106744,4.41313086 C8.0223314,4.49799017 8.04019652,4.59401519 8.04019652,4.69897276 L8.04019652,6.13488164 L7.62036623,6.13488164 L7.62036623,4.80169719 C7.62036623,4.66324252 7.584636,4.55605181 7.51317552,4.48012506 C7.44171505,4.4041983 7.34122376,4.36623493 7.20946851,4.36623493 C7.14470746,4.36623493 7.08664582,4.37740063 7.03081733,4.39973202 C6.97722197,4.42206342 6.93032604,4.45332738 6.89236266,4.49575703 C6.85439929,4.53595355 6.82313533,4.58508263 6.80080393,4.64314426 C6.77847253,4.69897276 6.76730683,4.76150067 6.76730683,4.830728 L6.76730683,6.13934792 L6.35640911,6.13934792 L6.35640911,4.76820009 C6.35640911,4.70790531 6.34747655,4.65207682 6.32737829,4.60294774 C6.30951318,4.55381867 6.2827155,4.51138901 6.24698526,4.47565878 C6.21125502,4.43992854 6.16882537,4.41313086 6.11969629,4.39526574 C6.07056722,4.37740063 6.01473872,4.36623493 5.95221081,4.36623493 C5.88744975,4.36623493 5.82715498,4.37740063 5.77132649,4.40196516 C5.71549799,4.4265297 5.66860205,4.4600268 5.63063868,4.50245645 C5.59044216,4.54488611 5.5591782,4.59624833 5.53907995,4.65430996 C5.51898169,4.71237159 5.48325145,4.77489951 5.48325145,4.84412684 L5.48325145,6.13711478 L5.08575257,6.13711478 L5.08575257,4.02903082 L5.48771773,4.02903082 L5.48771773,4.38633318 L5.49441715,4.38633318 C5.51898169,4.32603841 5.55024565,4.27244305 5.59044216,4.22778026 C5.63063868,4.18088432 5.67530147,4.14068781 5.72666369,4.10719071 C5.7780259,4.07369361 5.83608754,4.04912908 5.89638231,4.03126396 C5.95891023,4.01339884 6.02367128,4.00446628 6.09289862,4.00446628 C6.24028584,4.00446628 6.36534167,4.04019652 6.46583296,4.10942385 C6.56855739,4.18088432 6.64001787,4.28137561 6.68244752,4.41313086 L6.69361322,4.41313086 C6.7204109,4.35060295 6.75614113,4.29254131 6.80080393,4.24341224 C6.84546673,4.19428316 6.8945958,4.14962037 6.95265744,4.11389013 C7.00848593,4.07815989 7.07324699,4.05136222 7.14024118,4.0334971 C7.20723537,4.01563198 7.27869585,4.00446628 7.3546226,4.00446628 Z" id="形状"></path>
                </g>
            </g>
        </g>
    </g>
</svg>