<?xml version="1.0" encoding="UTF-8"?>
<svg width="20px" height="20px" viewBox="0 0 20 20" version="1.1" xmlns="http://www.w3.org/2000/svg" xmlns:xlink="http://www.w3.org/1999/xlink">
    <title>icon/gray/web</title>
    <g id="页面-1" stroke="none" stroke-width="1" fill="none" fill-rule="evenodd">
        <g id="icon-&amp;-Logo2" transform="translate(-50.000000, -177.000000)" fill-rule="nonzero">
            <g id="icon/gray/web" transform="translate(50.000000, 177.000000)">
                <rect fill="#D8D8D8" opacity="0" x="0" y="0" width="20" height="20"></rect>
                <g id="chrome-(1)备份" transform="translate(1.500000, 1.500000)" fill="#999999">
                    <path d="M2.05275,2.96083334 C6.00383334,-1.63695834 13.3308333,-0.729583339 16.06925,4.643125 L9.48670834,4.643125 C8.30095834,4.643125 7.53525,4.61620834 6.70579166,5.05254166 C5.731125,5.56608332 4.995875,6.517375 4.73875,7.63441666 L2.05275,2.96154166 L2.05275,2.96083334 Z" id="路径"></path>
                    <path d="M5.67233334,8.5 C5.67233334,10.0583333 6.93954168,11.32625 8.49716666,11.32625 C10.0555,11.32625 11.322,10.0583333 11.322,8.5 C11.322,6.94166666 10.0547917,5.67375 8.49716666,5.67375 C6.93883332,5.67375 5.67233334,6.94166666 5.67233334,8.5 Z" id="路径"></path>
                    <path d="M9.59366666,12.199625 C8.00770832,12.6706667 6.15258332,12.1479167 5.136125,10.393375 C4.35979166,9.054625 2.309875,5.48320834 1.37841666,3.85970834 C-1.884875,8.86054168 0.927916661,15.6768333 6.85170834,16.8399167 L9.59295834,12.199625 L9.59366666,12.199625 Z" id="路径"></path>
                    <path d="M11.1208333,5.67375 C12.4357573,6.90127897 12.7315964,8.87295257 11.8348333,10.4323333 C11.1612083,11.594 9.01,15.2249167 7.96733334,16.983 C14.0710417,17.359125 18.5215,11.37725 16.51125,5.67304166 L11.1208333,5.67304166 L11.1208333,5.67375 Z" id="路径"></path>
                </g>
            </g>
        </g>
    </g>
</svg>