<?xml version="1.0" encoding="UTF-8"?>
<svg width="20px" height="20px" viewBox="0 0 20 20" version="1.1" xmlns="http://www.w3.org/2000/svg" xmlns:xlink="http://www.w3.org/1999/xlink">
    <title>icon/gray/iOS</title>
    <g id="页面-1" stroke="none" stroke-width="1" fill="none" fill-rule="evenodd">
        <g id="icon-&amp;-Logo2" transform="translate(-50.000000, -111.000000)" fill-rule="nonzero">
            <g id="icon/gray/iOS" transform="translate(50.000000, 111.000000)">
                <rect fill="#D8D8D8" opacity="0" x="0" y="0" width="20" height="20"></rect>
                <path d="M17.6775975,4.13534665 C17.2849895,3.20426094 16.49696,2.49738565 15.5290239,2.20804125 C14.8974852,2.05024311 14.2469767,1.98162781 13.5964243,2.00419164 L6.40329624,2.00419164 C5.75275908,1.98164153 5.10226419,2.05016995 4.47069665,2.20778739 C3.50275274,2.49730831 2.71480802,3.20437722 2.32237682,4.13560051 C2.07872156,4.86542432 1.97161064,5.63391436 2.00641011,6.40257063 L2.00641011,13.5974718 C1.97249456,14.3660865 2.07958313,15.1344162 2.32237682,15.8644419 C2.71480802,16.7956652 3.50275274,17.5027341 4.47069665,17.792255 C5.10263007,17.9491405 5.75207489,18.018952 6.40329624,17.9955969 L13.5964243,17.9955969 C14.2469496,18.01823 14.8974443,17.949787 15.5290239,17.792255 C16.4970638,17.5027999 17.285112,16.7957217 17.6775975,15.8644419 C17.9211667,15.134602 18.0281916,14.3661124 17.9933104,13.5974718 L17.9933104,6.40231677 C18.0289574,5.63364072 17.9219131,4.86501132 17.6775975,4.13534665 Z" id="路径" fill="#999999"></path>
                <g id="编组" transform="translate(4.200000, 7.000000)" fill="#FFFFFF">
                    <g id="macOS" transform="translate(1.914385, 0.000000)">
                        <path d="M2.49925562,5.93382462 C0.962111061,5.93382462 0,4.86563942 0,3.16287033 C0,1.46010124 0.962111061,0.388194134 2.49925562,0.388194134 C4.03640018,0.388194134 4.99478934,1.46010124 4.99478934,3.16287033 C4.99478934,4.86563942 4.03453923,5.93382462 2.49925562,5.93382462 Z M2.49925562,1.07116272 C1.44595802,1.07116272 0.789042727,1.87881495 0.789042727,3.16100938 C0.789042727,4.44134286 1.44781897,5.24713414 2.49925562,5.24713414 C3.54883132,5.24713414 4.20946851,4.43948191 4.20946851,3.16100938 C4.20946851,1.87881495 3.54697037,1.07116272 2.49925562,1.07116272 L2.49925562,1.07116272 Z" id="形状"></path>
                        <path d="M7.55359536,5.93382462 C6.38119696,5.93382462 5.58471044,5.31971118 5.53074289,4.35573917 L6.29373232,4.35573917 C6.35328272,4.90658032 6.88551437,5.27132649 7.6150067,5.27132649 C8.31472384,5.27132649 8.81718029,4.90658032 8.81718029,4.40784576 C8.81718029,3.9761054 8.51198452,3.71557243 7.80482358,3.53692124 L7.11627215,3.36571386 C6.12624684,3.12006848 5.67589698,2.66971862 5.67589698,1.92906059 C5.67589698,1.01719518 6.4723835,0.384472235 7.60570195,0.384472235 C8.71482805,0.384472235 9.48712223,1.02091708 9.51689742,1.93650439 L8.76135179,1.93650439 C8.7092452,1.38566324 8.25889534,1.04697037 7.5889534,1.04697037 C6.92273336,1.04697037 6.46121781,1.38938514 6.46121781,1.8843978 C6.46121781,2.27519726 6.75152598,2.50595504 7.45868691,2.68460622 L8.03930326,2.82976031 C9.14470746,3.09773709 9.59877922,3.53319934 9.59877922,4.31479827 C9.59877922,5.31226738 8.81159744,5.93382462 7.55359536,5.93382462 L7.55359536,5.93382462 Z" id="路径"></path>
                    </g>
                    <path d="M0.8,1.64375807 L0.8,5.89345434 L0,5.89375807 L0,1.64375807 L0.8,1.64375807 Z M0.406318825,0.2 C0.627224687,0.201067807 0.805442719,0.381059647 0.80438467,0.602027758 C0.804016293,0.708673841 0.761276366,0.810799195 0.685578245,0.885899688 C0.609880124,0.96100018 0.507436177,1.00291249 0.400820744,1.00240552 C0.294617395,1.00153058 0.193126805,0.958417034 0.118752727,0.882577434 C0.0443786484,0.806737833 0.00323677395,0.704408385 0.00440905219,0.598178016 C0.00547182953,0.377209905 0.185412964,0.198941653 0.406318825,0.2 Z" id="形状结合"></path>
                </g>
            </g>
        </g>
    </g>
</svg>