<?xml version="1.0" encoding="UTF-8"?>
<svg width="20px" height="20px" viewBox="0 0 20 20" version="1.1" xmlns="http://www.w3.org/2000/svg" xmlns:xlink="http://www.w3.org/1999/xlink">
    <title>icon/gray/小程序</title>
    <g id="页面-1" stroke="none" stroke-width="1" fill="none" fill-rule="evenodd">
        <g id="icon-&amp;-Logo2" transform="translate(-50.000000, -210.000000)" fill-rule="nonzero">
            <g id="icon/gray/小程序" transform="translate(50.000000, 210.000000)">
                <rect fill="#D8D8D8" opacity="0" x="0" y="0" width="20" height="20"></rect>
                <path d="M10,1.42857143 C5.26658163,1.42857143 1.42857143,5.26658163 1.42857143,10 C1.42857143,14.7334184 5.26658163,18.5714286 10,18.5714286 C14.7334184,18.5714286 18.5714286,14.7334184 18.5714286,10 C18.5714286,7.72704082 17.6683673,5.54591837 16.0612245,3.93877551 C14.4540816,2.33163265 12.2729592,1.42857143 10,1.42857143 Z M12.8565051,10.6294643 C12.5178571,10.7461735 12.1447704,10.5931122 11.9859694,10.2716837 C11.8290816,9.92920918 11.9859694,9.68622449 12.2997449,9.48533163 C12.4164541,9.40688776 12.5408163,9.33992347 12.6709184,9.28443878 C13.2429847,8.95535714 13.713648,8.52678571 13.4285714,7.85522959 C13.1798469,7.25637755 12.5274235,6.93494898 11.8998724,7.09757653 C11.5784439,7.10522959 11.2723214,7.24107143 11.0503827,7.47257653 C10.8284439,7.7059949 10.7079082,8.01785714 10.7155612,8.33928571 L10.7155612,11.8960459 C10.5223214,13.3214286 9.29783163,14.3813776 7.85905612,14.3679847 C6.30357143,14.2531888 5.12691327,12.9119898 5.21683673,11.3545918 C5.21683673,10.526148 5.98788265,9.92538265 7.00191327,9.41262755 C7.43048469,9.28443878 7.85905612,9.28443878 8.08673469,9.7130102 C8.31441327,10.1415816 7.88584184,10.4553571 7.51466837,10.627551 C6.75701531,10.9566327 6.38584184,11.4846939 6.74362245,12.2557398 C6.89501172,12.5780101 7.16930668,12.8261161 7.50510204,12.9445153 C7.83992347,13.0631378 8.20918367,13.0420918 8.52869898,12.8852041 C9.09885204,12.6919643 9.45089286,12.1237245 9.37244898,11.528699 L9.37244898,8.29910714 C9.30739796,7.13966837 10.0554847,6.08928571 11.1728316,5.76977041 C12.2901786,5.39477041 13.5223214,5.71428571 14.3163265,6.58482143 C14.8137755,7.27933673 14.9419643,8.17283163 14.6568878,8.97831633 C14.3718112,9.78380102 13.7117347,10.3998724 12.8890306,10.627551 L12.8565051,10.627551 L12.8565051,10.6294643 Z" id="Shape" fill="#999999"></path>
            </g>
        </g>
    </g>
</svg>