<?xml version="1.0" encoding="UTF-8"?>
<svg width="20px" height="20px" viewBox="0 0 20 20" version="1.1" xmlns="http://www.w3.org/2000/svg" xmlns:xlink="http://www.w3.org/1999/xlink">
    <title>icon/color/ReactNative</title>
    <g id="页面-1" stroke="none" stroke-width="1" fill="none" fill-rule="evenodd">
        <g id="icon-&amp;-Logo2" transform="translate(-88.000000, -402.000000)" fill-rule="nonzero">
            <g id="icon/color/ReactNative" transform="translate(88.000000, 402.000000)">
                <rect fill="#D8D8D8" opacity="0" x="0" y="0" width="20" height="20"></rect>
                <circle id="椭圆形" fill="#5C5F61" cx="10" cy="10" r="8.57142857"></circle>
                <g id="React-icon" transform="translate(3.571429, 4.285714)" fill="#07DDFF">
                    <path d="M12.8388502,5.70993031 C12.8388502,4.86062718 11.7752613,4.05574913 10.1445993,3.55662021 C10.5209059,1.8945993 10.3536585,0.572299652 9.61672474,0.148954704 C9.44686411,0.0496515679 9.24825784,0.00261324042 9.03135889,0.00261324042 L9.03135889,0.585365854 C9.15156794,0.585365854 9.24825784,0.608885017 9.32926829,0.653310105 C9.68466899,0.857142857 9.83885017,1.63327526 9.71864111,2.6315331 C9.68989547,2.8771777 9.64285714,3.1358885 9.58536585,3.39982578 C9.07317073,3.27439024 8.51393728,3.17770035 7.92595819,3.11498258 C7.57317073,2.6315331 7.20731707,2.19250871 6.83885017,1.80836237 C7.69076655,1.01655052 8.49041812,0.582752613 9.03397213,0.582752613 L9.03397213,0 C9.03397213,0 9.03397213,0 9.03397213,0 C8.31533101,0 7.37456446,0.512195122 6.42334495,1.40069686 C5.47212544,0.517421603 4.53135889,0.0104529617 3.81271777,0.0104529617 L3.81271777,0.593205575 C4.35365854,0.593205575 5.15592334,1.02439024 6.00783972,1.81097561 C5.64198606,2.19512195 5.2761324,2.6315331 4.92857143,3.11498258 C4.33797909,3.17770035 3.77874564,3.27439024 3.26655052,3.40243902 C3.20644599,3.14111498 3.16202091,2.88763066 3.13066202,2.6445993 C3.00783972,1.64634146 3.15940767,0.870209059 3.51219512,0.663763066 C3.59059233,0.616724739 3.69250871,0.595818815 3.81271777,0.595818815 L3.81271777,0.0130662021 C3.81271777,0.0130662021 3.81271777,0.0130662021 3.81271777,0.0130662021 C3.59320557,0.0130662021 3.3945993,0.0601045296 3.22212544,0.159407666 C2.48780488,0.582752613 2.32317073,1.90243902 2.70209059,3.55923345 C1.07665505,4.06097561 0.0182926829,4.86324042 0.0182926829,5.70993031 C0.0182926829,6.55923345 1.08188153,7.3641115 2.71254355,7.86324042 C2.33623693,9.52526132 2.50348432,10.847561 3.24041812,11.2709059 C3.41027875,11.3702091 3.60888502,11.4172474 3.82839721,11.4172474 C4.54703833,11.4172474 5.48780488,10.9050523 6.43902439,10.0165505 C7.3902439,10.8998258 8.33101045,11.4067944 9.04965157,11.4067944 C9.26916376,11.4067944 9.46777003,11.3597561 9.6402439,11.260453 C10.3745645,10.837108 10.5391986,9.5174216 10.1602787,7.86062718 C11.7804878,7.36149826 12.8388502,6.55662021 12.8388502,5.70993031 Z M9.43641115,3.96689895 C9.33972125,4.30400697 9.2195122,4.65156794 9.08362369,4.99912892 C8.97648084,4.79006969 8.8641115,4.58101045 8.7412892,4.37195122 C8.62108014,4.16289199 8.49303136,3.95905923 8.36498258,3.76045296 C8.73606272,3.81533101 9.09407666,3.88327526 9.43641115,3.96689895 Z M8.23954704,6.75 C8.03571429,7.10278746 7.82665505,7.43728223 7.6097561,7.74825784 C7.22038328,7.78222997 6.82578397,7.80052265 6.42857143,7.80052265 C6.03397213,7.80052265 5.63937282,7.78222997 5.25261324,7.75087108 C5.03571429,7.43989547 4.82404181,7.10801394 4.62020906,6.75783972 C4.42160279,6.41550523 4.2412892,6.06794425 4.07665505,5.71777003 C4.23867596,5.36759582 4.42160279,5.0174216 4.61759582,4.67508711 C4.82142857,4.32229965 5.0304878,3.98780488 5.24738676,3.67682927 C5.63675958,3.64285714 6.03135889,3.62456446 6.42857143,3.62456446 C6.82317073,3.62456446 7.21777003,3.64285714 7.60452962,3.67421603 C7.82142857,3.98519164 8.03310105,4.31707317 8.2369338,4.66724739 C8.43554007,5.00958188 8.61585366,5.35714286 8.7804878,5.70731707 C8.61585366,6.05749129 8.43554007,6.40766551 8.23954704,6.75 Z M9.08362369,6.41027875 C9.22473868,6.76045296 9.34494774,7.11062718 9.44425087,7.45034843 C9.10191638,7.53397213 8.7412892,7.60452962 8.36759582,7.65940767 C8.4956446,7.45818815 8.62369338,7.25174216 8.74390244,7.04006969 C8.8641115,6.83101045 8.97648084,6.61933798 9.08362369,6.41027875 Z M6.43379791,9.19860627 C6.19076655,8.94773519 5.94773519,8.66811847 5.70731707,8.36236934 C5.94250871,8.3728223 6.18292683,8.38066202 6.42595819,8.38066202 C6.67160279,8.38066202 6.91463415,8.37543554 7.15243902,8.36236934 C6.91724739,8.66811847 6.67421603,8.94773519 6.43379791,9.19860627 Z M4.48954704,7.65940767 C4.1184669,7.60452962 3.76045296,7.53658537 3.41811847,7.45296167 C3.51480836,7.11585366 3.63501742,6.76829268 3.77090592,6.42073171 C3.87804878,6.62979094 3.99041812,6.83885017 4.11324042,7.04790941 C4.23606272,7.25696864 4.36149826,7.46080139 4.48954704,7.65940767 Z M6.42073171,2.22125436 C6.66376307,2.47212544 6.90679443,2.75174216 7.14721254,3.05749129 C6.91202091,3.04703833 6.67160279,3.03919861 6.42857143,3.03919861 C6.18292683,3.03919861 5.93989547,3.04442509 5.70209059,3.05749129 C5.93728223,2.75174216 6.18031359,2.47212544 6.42073171,2.22125436 Z M4.4869338,3.76045296 C4.35888502,3.96167247 4.23083624,4.16811847 4.11062718,4.37979094 C3.99041812,4.58885017 3.87804878,4.79790941 3.77090592,5.00696864 C3.62979094,4.65679443 3.50958188,4.30662021 3.41027875,3.96689895 C3.75261324,3.8858885 4.11324042,3.81533101 4.4869338,3.76045296 Z M2.12195122,7.03222997 C1.19686411,6.63763066 0.598432056,6.12020906 0.598432056,5.70993031 C0.598432056,5.29965157 1.19686411,4.77961672 2.12195122,4.38763066 C2.3466899,4.29094077 2.59233449,4.20470383 2.84581882,4.12369338 C2.99477352,4.6358885 3.19076655,5.16898955 3.43379791,5.71515679 C3.19337979,6.2587108 3,6.78919861 2.85365854,7.29878049 C2.59494774,7.21777003 2.34930314,7.12891986 2.12195122,7.03222997 Z M3.52787456,10.7665505 C3.17247387,10.5627178 3.01829268,9.78658537 3.13850174,8.78832753 C3.16724739,8.54268293 3.21428571,8.28397213 3.271777,8.02003484 C3.78397213,8.14547038 4.34320557,8.24216028 4.93118467,8.30487805 C5.28397213,8.78832753 5.64982578,9.22735192 6.01829268,9.61149826 C5.16637631,10.4033101 4.36672474,10.837108 3.82317073,10.837108 C3.70557491,10.8344948 3.60627178,10.8109756 3.52787456,10.7665505 Z M9.72648084,8.77526132 C9.84930314,9.77351916 9.69773519,10.5496516 9.34494774,10.7560976 C9.26655052,10.8031359 9.16463415,10.8240418 9.04442509,10.8240418 C8.50348432,10.8240418 7.70121951,10.3928571 6.84930314,9.60627178 C7.21515679,9.22212544 7.58101045,8.78571429 7.92857143,8.30226481 C8.51916376,8.23954704 9.07839721,8.14285714 9.59059233,8.01480836 C9.65069686,8.27874564 9.69773519,8.53222997 9.72648084,8.77526132 Z M10.7325784,7.03222997 C10.5078397,7.12891986 10.2621951,7.21515679 10.0087108,7.29616725 C9.8597561,6.78397213 9.66376307,6.25087108 9.42073171,5.70470383 C9.66114983,5.16114983 9.85452962,4.63066202 10.0008711,4.12108014 C10.2595819,4.20209059 10.5052265,4.29094077 10.7351916,4.38763066 C11.6602787,4.78222997 12.2587108,5.29965157 12.2587108,5.70993031 C12.2560976,6.12020906 11.6576655,6.6402439 10.7325784,7.03222997 Z" id="形状"></path>
                    <circle id="椭圆形" cx="6.42595819" cy="5.70993031" r="1.19425087"></circle>
                </g>
            </g>
        </g>
    </g>
</svg>