<svg width="20" height="20" viewBox="0 0 20 20" fill="none" xmlns="http://www.w3.org/2000/svg">
<mask id="path-1-inside-1_192_2069" fill="white">
<path fill-rule="evenodd" clip-rule="evenodd" d="M10.0001 1.66675C5.39771 1.66675 1.66675 5.39771 1.66675 10.0001C1.66675 14.6025 5.39771 18.3334 10.0001 18.3334C10.0001 18.3334 10.0001 18.3334 10.0001 18.3334H16.5533C16.907 18.3334 17.1489 17.9762 17.0175 17.6477L16.1902 15.5794C17.5224 14.1022 18.3334 12.1459 18.3334 10.0001C18.3334 5.39771 14.6025 1.66675 10.0001 1.66675Z"/>
</mask>
<path d="M17.0175 17.6477L18.4102 17.0906V17.0906L17.0175 17.6477ZM16.1902 15.5794L15.0763 14.5747L14.4504 15.2687L14.7975 16.1364L16.1902 15.5794ZM3.16675 10.0001C3.16675 6.22614 6.22614 3.16675 10.0001 3.16675V0.166748C4.56928 0.166748 0.166748 4.56928 0.166748 10.0001H3.16675ZM10.0001 16.8334C6.22614 16.8334 3.16675 13.774 3.16675 10.0001H0.166748C0.166748 15.4309 4.56928 19.8334 10.0001 19.8334V16.8334ZM10.0001 16.8334C10.0147 16.8334 10.0276 16.8336 10.0382 16.8339C10.0488 16.8342 10.0579 16.8345 10.0648 16.8348C10.0717 16.8351 10.0772 16.8354 10.0805 16.8356C10.0835 16.8357 10.0861 16.8359 10.0857 16.8359H10.0857C10.0857 16.8359 10.0857 16.8359 10.0857 16.8359C10.0857 16.8359 10.0857 16.8359 10.0857 16.8359C10.0856 16.8359 10.0856 16.8359 10.0856 16.8359C10.0855 16.8359 10.0855 16.8358 10.0854 16.8358C10.0851 16.8358 10.0848 16.8358 10.0844 16.8358C10.0836 16.8357 10.0822 16.8357 10.0805 16.8356C10.0772 16.8354 10.0716 16.8351 10.0648 16.8348C10.0579 16.8345 10.0488 16.8342 10.0382 16.8339C10.0275 16.8336 10.0147 16.8334 10.0001 16.8334V19.8334C9.98548 19.8334 9.97263 19.8332 9.96199 19.8329C9.95136 19.8327 9.94231 19.8323 9.93541 19.832C9.92855 19.8317 9.92302 19.8314 9.91972 19.8313C9.91669 19.8311 9.91409 19.8309 9.91453 19.831H9.91453C9.91453 19.831 9.91454 19.831 9.91454 19.831C9.91454 19.831 9.91455 19.831 9.91455 19.831C9.91457 19.831 9.91459 19.831 9.91461 19.831C9.91467 19.831 9.91475 19.831 9.91486 19.831C9.91506 19.831 9.91541 19.831 9.91583 19.831C9.91666 19.8311 9.91803 19.8312 9.91973 19.8313C9.92304 19.8314 9.92857 19.8317 9.93543 19.832C9.94234 19.8323 9.9514 19.8327 9.96203 19.8329C9.97267 19.8332 9.98553 19.8334 10.0001 19.8334V16.8334ZM16.5533 16.8334H10.0001V19.8334H16.5533V16.8334ZM15.6248 18.2048C15.3621 17.5479 15.8458 16.8334 16.5533 16.8334V19.8334C17.9682 19.8334 18.9357 18.4044 18.4102 17.0906L15.6248 18.2048ZM14.7975 16.1364L15.6248 18.2048L18.4102 17.0906L17.5829 15.0223L14.7975 16.1364ZM16.8334 10.0001C16.8334 11.7605 16.1697 13.3625 15.0763 14.5747L17.3041 16.584C18.8751 14.842 19.8334 12.5312 19.8334 10.0001H16.8334ZM10.0001 3.16675C13.774 3.16675 16.8334 6.22614 16.8334 10.0001H19.8334C19.8334 4.56928 15.4309 0.166748 10.0001 0.166748V3.16675Z" fill="#464E53" mask="url(#path-1-inside-1_192_2069)"/>
<path fill-rule="evenodd" clip-rule="evenodd" d="M5.83496 11.8799C5.83496 11.5283 6.11637 11.2432 6.4635 11.2432L13.0022 11.2432C13.3493 11.2432 13.6308 11.5283 13.6308 11.8799C13.6308 12.2316 13.3493 12.5167 13.0022 12.5167H6.4635C6.11637 12.5167 5.83496 12.2316 5.83496 11.8799Z" fill="#464E53"/>
<path fill-rule="evenodd" clip-rule="evenodd" d="M6.36938 8.30206C6.36938 7.95038 6.65079 7.66528 6.99793 7.66528L13.5366 7.66528C13.8838 7.66528 14.1652 7.95038 14.1652 8.30206C14.1652 8.65374 13.8838 8.93883 13.5366 8.93883H6.99793C6.65079 8.93883 6.36938 8.65374 6.36938 8.30206Z" fill="#464E53"/>
<path fill-rule="evenodd" clip-rule="evenodd" d="M10.5132 14.6281C10.1733 14.5571 9.95443 14.2204 10.0245 13.8759L11.6701 5.86756C11.7401 5.52311 12.0725 5.30139 12.4124 5.37234C12.7524 5.44329 12.9712 5.78003 12.9012 6.12448L11.2556 14.1328C11.1856 14.4773 10.8532 14.699 10.5132 14.6281Z" fill="#464E53"/>
<path fill-rule="evenodd" clip-rule="evenodd" d="M7.45438 14.6281C7.11441 14.5571 6.89559 14.2204 6.96563 13.8759L8.61122 5.86756C8.68126 5.52311 9.01363 5.30139 9.3536 5.37234C9.69357 5.44329 9.91239 5.78003 9.84235 6.12448L8.19676 14.1328C8.12672 14.4773 7.79435 14.699 7.45438 14.6281Z" fill="#464E53"/>
</svg>
