<svg width="20" height="20" viewBox="0 0 20 20" fill="none" xmlns="http://www.w3.org/2000/svg">
<rect width="20" height="20" fill="white"/>
<path fill-rule="evenodd" clip-rule="evenodd" d="M4.16667 3.75H15.8333C16.0635 3.75 16.25 3.93655 16.25 4.16667V7.08333H3.75V4.16667C3.75 3.93655 3.93655 3.75 4.16667 3.75ZM2.5 7.70833V4.16667C2.5 3.24619 3.24619 2.5 4.16667 2.5H15.8333C16.7538 2.5 17.5 3.24619 17.5 4.16667V7.70833V12.2917V15.8333C17.5 16.7538 16.7538 17.5 15.8333 17.5H4.16667C3.24619 17.5 2.5 16.7538 2.5 15.8333V12.2917V7.70833ZM16.25 11.6667H3.75V8.33333H16.25V11.6667ZM16.25 12.9167H3.75V15.8333C3.75 16.0635 3.93655 16.25 4.16667 16.25H15.8333C16.0635 16.25 16.25 16.0635 16.25 15.8333V12.9167ZM5.625 4.79167C5.27982 4.79167 5 5.07149 5 5.41667C5 5.76184 5.27982 6.04167 5.625 6.04167H6.875C7.22018 6.04167 7.5 5.76184 7.5 5.41667C7.5 5.07149 7.22018 4.79167 6.875 4.79167H5.625ZM5 10C5 9.65482 5.27982 9.375 5.625 9.375H6.875C7.22018 9.375 7.5 9.65482 7.5 10C7.5 10.3452 7.22018 10.625 6.875 10.625H5.625C5.27982 10.625 5 10.3452 5 10ZM5.625 13.9583C5.27982 13.9583 5 14.2382 5 14.5833C5 14.9285 5.27982 15.2083 5.625 15.2083H6.875C7.22018 15.2083 7.5 14.9285 7.5 14.5833C7.5 14.2382 7.22018 13.9583 6.875 13.9583H5.625Z" fill="#464E53"/>
</svg>
