<svg width="20" height="20" viewBox="0 0 20 20" fill="none" xmlns="http://www.w3.org/2000/svg">
<rect width="20" height="20" fill="white"/>
<path fill-rule="evenodd" clip-rule="evenodd" d="M12.3211 11.2222C12.1927 11.2222 12.1078 11.2247 11.9775 11.2302C11.6326 11.2446 11.3414 10.9767 11.327 10.6318C11.3126 10.2869 11.5805 9.99569 11.9253 9.98128C12.0666 9.97538 12.1698 9.97223 12.3211 9.97223C13.3423 9.97223 14.2807 10.1149 15.1284 10.411C15.8416 10.6578 16.4726 11.0075 17.0129 11.4647C17.457 11.8307 17.8147 12.2415 18.071 12.7007L18.076 12.7096L18.0806 12.7186C18.2638 13.0733 18.3329 13.4909 18.3329 13.9315C18.3329 14.4644 18.1511 14.9437 17.7954 15.3395C17.44 15.7467 16.9731 15.9711 16.4297 15.9711H15.374C15.0288 15.9711 14.749 15.6913 14.749 15.3461C14.749 15.0009 15.0288 14.7211 15.374 14.7211H16.4297C16.5942 14.7211 16.7243 14.6666 16.8553 14.5155L16.8595 14.5108L16.8637 14.5061C17.0125 14.3414 17.0829 14.16 17.0829 13.9315C17.0829 13.616 17.0326 13.4179 16.974 13.3C16.805 13.0005 16.557 12.7083 16.2151 12.427L16.2081 12.4212L16.2081 12.4212C15.7959 12.0718 15.3023 11.7938 14.7189 11.5921L14.717 11.5914L14.717 11.5914C14.023 11.3489 13.2269 11.2222 12.3211 11.2222Z" fill="#1A1A1A"/>
<path fill-rule="evenodd" clip-rule="evenodd" d="M10.3748 2.13566C10.8519 1.82852 11.3811 1.67273 11.9485 1.67273C12.516 1.67273 13.0452 1.82852 13.5223 2.13567C13.9956 2.42921 14.3648 2.83384 14.6275 3.33525C14.9025 3.8405 15.038 4.39199 15.038 4.97838V6.16829C15.038 6.74617 14.9014 7.29174 14.6275 7.79478C14.365 8.2958 13.9973 8.70382 13.5278 9.00744C13.0493 9.31694 12.5182 9.47394 11.9485 9.47394C11.6034 9.47394 11.3235 9.19412 11.3235 8.84894C11.3235 8.50376 11.6034 8.22394 11.9485 8.22394C12.2769 8.22394 12.5724 8.13674 12.849 7.95784C13.133 7.77414 13.3562 7.52909 13.5221 7.21116L13.5249 7.20581L13.5278 7.20051C13.701 6.88361 13.788 6.54298 13.788 6.16829V4.97838C13.788 4.59002 13.6998 4.24422 13.5278 3.92951L13.5249 3.92421L13.5221 3.91885C13.3575 3.60332 13.1376 3.36719 12.8601 3.19585L12.8545 3.1924L12.849 3.18883C12.5724 3.00993 12.2769 2.92273 11.9485 2.92273C11.6202 2.92273 11.3247 3.00993 11.0481 3.18883L11.0426 3.1924L11.037 3.19585C10.8024 3.3407 10.6065 3.53122 10.4469 3.77438C10.2575 4.06297 9.87008 4.1434 9.58149 3.95402C9.2929 3.76465 9.21247 3.37718 9.40185 3.08859C9.65769 2.69871 9.98281 2.37877 10.3748 2.13566Z" fill="#1A1A1A"/>
<path fill-rule="evenodd" clip-rule="evenodd" d="M10.5235 14.473L10.5235 14.473C9.78292 14.2142 8.91919 14.0741 7.91675 14.0741C6.91431 14.0741 6.05058 14.2142 5.31002 14.473L5.30619 14.4743L5.30619 14.4743C4.68457 14.6893 4.17019 14.9812 3.74615 15.3406L3.73919 15.3465L3.73216 15.3523C3.38338 15.6392 3.14334 15.9249 2.98389 16.2027C2.9621 16.252 2.91675 16.3949 2.91675 16.6923C2.91675 16.8378 2.95252 16.9276 3.02632 17.016C3.06962 17.062 3.095 17.0741 3.09937 17.0761L3.0997 17.0763C3.10298 17.0778 3.11484 17.0834 3.1498 17.0834H12.6837C12.7039 17.0834 12.7148 17.0814 12.7184 17.0806C12.7205 17.0802 12.7215 17.0799 12.7217 17.0798L12.7224 17.0795C12.7225 17.0795 12.7266 17.0776 12.7353 17.0709C12.7442 17.064 12.7599 17.0503 12.7812 17.0258L12.7895 17.0162L12.798 17.0068C12.8825 16.9133 12.9167 16.8285 12.9167 16.6923C12.9167 16.3949 12.8714 16.252 12.8496 16.2027C12.6902 15.9249 12.4501 15.6392 12.1013 15.3523L12.0943 15.3465L12.0874 15.3406C11.6633 14.9812 11.1489 14.6893 10.5273 14.4743L10.5235 14.473ZM13.9549 15.6178C14.0961 15.8913 14.1667 16.2495 14.1667 16.6923C14.1667 17.1351 14.0196 17.5193 13.7254 17.8449C13.4429 18.1706 13.0957 18.3334 12.6837 18.3334H3.1498C2.73784 18.3334 2.38473 18.1706 2.09048 17.8449C1.80799 17.5193 1.66675 17.1351 1.66675 16.6923C1.66675 16.2495 1.73737 15.8913 1.87861 15.6178C2.12579 15.175 2.4789 14.7647 2.93793 14.387C3.49114 13.9181 4.14438 13.5535 4.89768 13.293C5.79222 12.9804 6.79857 12.8241 7.91675 12.8241C9.03492 12.8241 10.0413 12.9804 10.9358 13.293C11.6891 13.5535 12.3424 13.9181 12.8956 14.387C13.3546 14.7647 13.7077 15.175 13.9549 15.6178Z" fill="#1A1A1A"/>
<path fill-rule="evenodd" clip-rule="evenodd" d="M6.26288 4.60675C5.80928 4.88678 5.44763 5.2735 5.17792 5.7669C4.92047 6.2603 4.79175 6.80037 4.79175 7.38712V8.81663C4.79175 9.39004 4.92047 9.92344 5.17792 10.4168C5.44763 10.9102 5.80928 11.3036 6.26288 11.597C6.71648 11.8904 7.21299 12.0371 7.75241 12.0371C8.29183 12.0371 8.78834 11.8904 9.24194 11.597C9.69554 11.3036 10.0511 10.9102 10.3085 10.4168C10.5782 9.92344 10.7131 9.39004 10.7131 8.81663V7.38712C10.7131 6.80037 10.5782 6.2603 10.3085 5.7669C10.0511 5.2735 9.69554 4.88678 9.24194 4.60675C8.78834 4.31337 8.29183 4.16669 7.75241 4.16669C7.21299 4.16669 6.71648 4.31337 6.26288 4.60675ZM6.28061 9.82794C6.45391 10.1412 6.67302 10.3736 6.94173 10.5474C7.1934 10.7102 7.45423 10.7871 7.75241 10.7871C8.05059 10.7871 8.31142 10.7102 8.56309 10.5474C8.82959 10.375 9.03967 10.1464 9.2003 9.83859L9.20589 9.82788L9.21168 9.81728C9.37884 9.51149 9.46307 9.18482 9.46307 8.81663V7.38712C9.46307 7.00046 9.37645 6.66789 9.21168 6.36646L9.20589 6.35586L9.2003 6.34515C9.04216 6.04207 8.83881 5.8269 8.58529 5.67038L8.57411 5.66348L8.56309 5.65635C8.31142 5.49358 8.05059 5.41669 7.75241 5.41669C7.45423 5.41669 7.1934 5.49358 6.94173 5.65635L6.93071 5.66348L6.91953 5.67038C6.66358 5.82839 6.45125 6.04745 6.28061 6.3558C6.12494 6.65822 6.04175 6.99507 6.04175 7.38712V8.81663C6.04175 9.19067 6.12282 9.52157 6.28061 9.82794Z" fill="#1A1A1A"/>
</svg>
