<svg width="20" height="20" viewBox="0 0 20 20" fill="none" xmlns="http://www.w3.org/2000/svg">
<path d="M16.7257 17.3143L16.1222 17.5557V17.5557L16.7257 17.3143ZM15.9425 15.3561L15.4598 14.9208L15.1885 15.2215L15.3389 15.5975L15.9425 15.3561ZM2.65 10C2.65 5.94071 5.94071 2.65 10 2.65V1.35C5.22274 1.35 1.35 5.22274 1.35 10H2.65ZM10 17.35C5.94071 17.35 2.65 14.0593 2.65 10H1.35C1.35 14.7773 5.22274 18.65 10 18.65V17.35ZM16.2615 17.35H10V18.65H16.2615V17.35ZM16.1222 17.5557C16.0828 17.4572 16.1554 17.35 16.2615 17.35V18.65C17.0751 18.65 17.6314 17.8283 17.3292 17.0729L16.1222 17.5557ZM15.3389 15.5975L16.1222 17.5557L17.3292 17.0729L16.546 15.1147L15.3389 15.5975ZM17.35 10C17.35 11.893 16.6352 13.6175 15.4598 14.9208L16.4251 15.7915C17.8076 14.2587 18.65 12.2269 18.65 10H17.35ZM10 2.65C14.0593 2.65 17.35 5.94071 17.35 10H18.65C18.65 5.22274 14.7773 1.35 10 1.35V2.65Z" fill="#1A1A1A"/>
<circle cx="10" cy="10" r="0.9375" fill="#1A1A1A" stroke="#1A1A1A" stroke-width="0.5"/>
<circle cx="6.25" cy="10" r="0.9375" fill="#1A1A1A" stroke="#1A1A1A" stroke-width="0.5"/>
<circle cx="13.75" cy="10" r="0.9375" fill="#1A1A1A" stroke="#1A1A1A" stroke-width="0.5"/>
</svg>
