<svg width="20" height="20" viewBox="0 0 20 20" fill="none" xmlns="http://www.w3.org/2000/svg">
<rect width="20" height="20" fill="white"/>
<path fill-rule="evenodd" clip-rule="evenodd" d="M7.5 3.75H4.16667C3.93655 3.75 3.75 3.93655 3.75 4.16667V7.5C3.75 7.73012 3.93655 7.91667 4.16667 7.91667H7.5C7.73012 7.91667 7.91667 7.73012 7.91667 7.5V4.16667C7.91667 3.93655 7.73012 3.75 7.5 3.75ZM4.16667 2.5C3.24619 2.5 2.5 3.24619 2.5 4.16667V7.5C2.5 8.42047 3.24619 9.16667 4.16667 9.16667H7.5C8.42047 9.16667 9.16667 8.42047 9.16667 7.5V4.16667C9.16667 3.24619 8.42047 2.5 7.5 2.5H4.16667Z" fill="#464E53"/>
<path fill-rule="evenodd" clip-rule="evenodd" d="M7.5 12.0834H4.16667C3.93655 12.0834 3.75 12.2699 3.75 12.5V15.8334C3.75 16.0635 3.93655 16.25 4.16667 16.25H7.5C7.73012 16.25 7.91667 16.0635 7.91667 15.8334V12.5C7.91667 12.2699 7.73012 12.0834 7.5 12.0834ZM4.16667 10.8334C3.24619 10.8334 2.5 11.5796 2.5 12.5V15.8334C2.5 16.7538 3.24619 17.5 4.16667 17.5H7.5C8.42047 17.5 9.16667 16.7538 9.16667 15.8334V12.5C9.16667 11.5796 8.42047 10.8334 7.5 10.8334H4.16667Z" fill="#464E53"/>
<path fill-rule="evenodd" clip-rule="evenodd" d="M15.8333 3.75H12.4999C12.2698 3.75 12.0833 3.93655 12.0833 4.16667V7.5C12.0833 7.73012 12.2698 7.91667 12.4999 7.91667H15.8333C16.0634 7.91667 16.2499 7.73012 16.2499 7.5V4.16667C16.2499 3.93655 16.0634 3.75 15.8333 3.75ZM12.4999 2.5C11.5794 2.5 10.8333 3.24619 10.8333 4.16667V7.5C10.8333 8.42047 11.5794 9.16667 12.4999 9.16667H15.8333C16.7537 9.16667 17.4999 8.42047 17.4999 7.5V4.16667C17.4999 3.24619 16.7537 2.5 15.8333 2.5H12.4999Z" fill="#464E53"/>
<path fill-rule="evenodd" clip-rule="evenodd" d="M15.8333 12.0834H12.4999C12.2698 12.0834 12.0833 12.2699 12.0833 12.5V15.8334C12.0833 16.0635 12.2698 16.25 12.4999 16.25H15.8333C16.0634 16.25 16.2499 16.0635 16.2499 15.8334V12.5C16.2499 12.2699 16.0634 12.0834 15.8333 12.0834ZM12.4999 10.8334C11.5794 10.8334 10.8333 11.5796 10.8333 12.5V15.8334C10.8333 16.7538 11.5794 17.5 12.4999 17.5H15.8333C16.7537 17.5 17.4999 16.7538 17.4999 15.8334V12.5C17.4999 11.5796 16.7537 10.8334 15.8333 10.8334H12.4999Z" fill="#464E53"/>
</svg>
