<svg width="20" height="20" viewBox="0 0 20 20" fill="none" xmlns="http://www.w3.org/2000/svg">
<path fill-rule="evenodd" clip-rule="evenodd" d="M4.09213 7.09222C4.03567 7.12045 4 7.17816 4 7.24129V15.9909C4 16.083 4.07462 16.1576 4.16667 16.1576H15.8333C15.9254 16.1576 16 16.083 16 15.9909V7.24129C16 7.17816 15.9643 7.12045 15.9079 7.09222L10.0745 4.17555C10.0276 4.15209 9.97239 4.15209 9.92546 4.17555L4.09213 7.09222ZM2.5 7.24129C2.5 6.61001 2.85667 6.0329 3.42131 5.75058L9.25464 2.83391C9.72386 2.59931 10.2761 2.59931 10.7454 2.83391L16.5787 5.75058C17.1433 6.0329 17.5 6.61001 17.5 7.24129V15.9909C17.5 16.9114 16.7538 17.6576 15.8333 17.6576H4.16667C3.24619 17.6576 2.5 16.9114 2.5 15.9909V7.24129Z" fill="#464E53"/>
<path fill-rule="evenodd" clip-rule="evenodd" d="M9.99976 6.60559C10.414 6.60559 10.7498 6.94138 10.7498 7.35559V14.3556C10.7498 14.7698 10.414 15.1056 9.99976 15.1056C9.58554 15.1056 9.24976 14.7698 9.24976 14.3556V7.35559C9.24976 6.94138 9.58554 6.60559 9.99976 6.60559ZM6.45068 8.88123C6.8649 8.88123 7.20068 9.21701 7.20068 9.63123L7.20068 12.08C7.20068 12.4942 6.8649 12.83 6.45068 12.83C6.03647 12.83 5.70068 12.4942 5.70068 12.08V9.63123C5.70068 9.21701 6.03647 8.88123 6.45068 8.88123ZM14.2996 9.00891C14.2996 8.5947 13.9638 8.25891 13.5496 8.25891C13.1353 8.25891 12.7996 8.5947 12.7996 9.00891L12.7996 12.7023C12.7996 13.1165 13.1353 13.4523 13.5496 13.4523C13.9638 13.4523 14.2996 13.1165 14.2996 12.7023V9.00891Z" fill="#464E53"/>
</svg>
