<svg width="20" height="20" viewBox="0 0 20 20" fill="none" xmlns="http://www.w3.org/2000/svg">
<rect width="20" height="20" fill="white"/>
<path fill-rule="evenodd" clip-rule="evenodd" d="M13.3334 3.75H3.33341C3.1033 3.75 2.91675 3.93655 2.91675 4.16667V11.6667C2.91675 11.8968 3.1033 12.0833 3.33341 12.0833H4.15841C4.85338 12.0833 5.41675 12.6467 5.41675 13.3417V14.0737L8.43961 12.3104C8.6945 12.1617 8.9843 12.0833 9.27939 12.0833H13.3334C13.5635 12.0833 13.7501 11.8968 13.7501 11.6667V4.16667C13.7501 3.93655 13.5635 3.75 13.3334 3.75ZM5.41675 15.5208L9.06945 13.3901C9.13317 13.3529 9.20562 13.3333 9.27939 13.3333H13.3334C14.2539 13.3333 15.0001 12.5871 15.0001 11.6667V4.16667C15.0001 3.24619 14.2539 2.5 13.3334 2.5H3.33341C2.41294 2.5 1.66675 3.24619 1.66675 4.16667V11.6667C1.66675 12.5871 2.41294 13.3333 3.33341 13.3333H4.15841C4.16302 13.3333 4.16675 13.3371 4.16675 13.3417V15.5246C4.16675 15.8461 4.51559 16.0465 4.79336 15.8845L5.41675 15.5208ZM16.6667 6.23991C16.8969 6.23991 17.0834 6.42495 17.0834 6.65321V14.0927C17.0834 14.3209 16.8969 14.506 16.6667 14.506H15.8417C15.1468 14.506 14.5834 15.0648 14.5834 15.7541V16.4803L11.5606 14.7312C11.3057 14.5837 11.0159 14.506 10.7208 14.506H8.5367C8.19431 14.506 7.91675 14.7835 7.91675 15.1259C7.91675 15.4683 8.19431 15.7459 8.5367 15.7459H10.7208C10.7945 15.7459 10.867 15.7653 10.9307 15.8022L14.5834 17.9157L15.2068 18.2764C15.4846 18.4371 15.8334 18.2384 15.8334 17.9194V15.7541C15.8334 15.7496 15.8371 15.7459 15.8417 15.7459H16.6667C17.5872 15.7459 18.3334 15.0057 18.3334 14.0927V6.65321C18.3334 5.74017 17.5872 5 16.6667 5H16.4588C16.1174 5 15.8399 5.2756 15.8376 5.61705C15.8353 5.96468 16.1187 6.24654 16.4663 6.24233L16.6667 6.23991ZM5.00008 8.83835C5.46032 8.83835 5.83342 8.46525 5.83342 8.00502C5.83342 7.54478 5.46032 7.17168 5.00008 7.17168C4.53984 7.17168 4.16675 7.54478 4.16675 8.00502C4.16675 8.46525 4.53984 8.83835 5.00008 8.83835ZM8.33342 8.83835C8.79365 8.83835 9.16675 8.46525 9.16675 8.00502C9.16675 7.54478 8.79365 7.17168 8.33342 7.17168C7.87318 7.17168 7.50008 7.54478 7.50008 8.00502C7.50008 8.46525 7.87318 8.83835 8.33342 8.83835ZM12.5001 8.00502C12.5001 8.46525 12.127 8.83835 11.6667 8.83835C11.2065 8.83835 10.8334 8.46525 10.8334 8.00502C10.8334 7.54478 11.2065 7.17168 11.6667 7.17168C12.127 7.17168 12.5001 7.54478 12.5001 8.00502Z" fill="#464E53"/>
</svg>
