<svg width="20" height="20" viewBox="0 0 20 20" fill="none" xmlns="http://www.w3.org/2000/svg">
<path fill-rule="evenodd" clip-rule="evenodd" d="M11.2348 10.4739C11.295 10.4407 11.3546 10.4052 11.4135 10.3674C11.8973 10.0568 12.2765 9.64023 12.5511 9.11781C12.8388 8.59539 12.9827 8.0306 12.9827 7.42346V5.90987C12.9827 5.28861 12.8388 4.71677 12.5511 4.19434C12.2765 3.67192 11.8973 3.26246 11.4135 2.96594C10.9296 2.65531 10.4 2.5 9.82463 2.5C9.24925 2.5 8.71964 2.65531 8.2358 2.96594C7.75196 3.26246 7.36619 3.67192 7.0785 4.19434C6.80389 4.71677 6.66659 5.28861 6.66659 5.90987V7.42346C6.66659 8.0306 6.80389 8.59539 7.0785 9.11781C7.36619 9.64023 7.75196 10.0568 8.2358 10.3674C8.31376 10.4174 8.39292 10.4635 8.47327 10.5055C8.89151 10.724 9.34196 10.8333 9.82463 10.8333C9.88354 10.8333 9.94197 10.8317 9.99992 10.8284C10.4391 10.8038 10.8507 10.6856 11.2348 10.4739ZM11.4533 11.756C10.9903 11.6964 10.5058 11.6667 9.99992 11.6667C9.9412 11.6667 9.88277 11.6671 9.82463 11.6679C9.28705 11.6753 8.77419 11.717 8.28604 11.793C7.7546 11.8757 7.25244 11.9991 6.77958 12.1631C5.97606 12.4389 5.27927 12.8251 4.68918 13.3215C4.19954 13.7214 3.82289 14.1558 3.55924 14.6247C3.40858 14.9143 3.33325 15.2935 3.33325 15.7624C3.33325 16.2313 3.48391 16.6381 3.78523 16.9829C4.0991 17.3276 4.47575 17.5 4.91517 17.5H15.0847C15.5241 17.5 15.8945 17.3276 16.1958 16.9829C16.5097 16.6381 16.6666 16.2313 16.6666 15.7624C16.6666 15.2935 16.5913 14.9143 16.4406 14.6247C16.1769 14.1558 15.8003 13.7214 15.3107 13.3215C14.7206 12.8251 14.0238 12.4389 13.2203 12.1631C12.6708 11.9725 12.0818 11.8368 11.4533 11.756ZM15.3377 15.2139C15.1626 14.9102 14.8997 14.5998 14.5199 14.2896L14.5129 14.2839L14.5059 14.278C14.0452 13.8904 13.487 13.5763 12.8144 13.3454L12.8106 13.3441C12.0096 13.0662 11.0778 12.9167 9.99992 12.9167C8.92203 12.9167 7.99025 13.0662 7.18922 13.3441L7.1854 13.3454L7.1854 13.3454C6.51282 13.5763 5.95467 13.8904 5.49392 14.278L5.48696 14.2839L5.47991 14.2896C5.10019 14.5998 4.83725 14.9102 4.66218 15.2139C4.63384 15.2757 4.58325 15.437 4.58325 15.7624C4.58325 15.9318 4.62679 16.0428 4.71824 16.1508C4.80589 16.2442 4.85313 16.25 4.91517 16.25H15.0847C15.1362 16.25 15.1568 16.241 15.1646 16.2374C15.1736 16.2332 15.2048 16.2173 15.2546 16.1603L15.2629 16.1507L15.2715 16.1414C15.3745 16.0282 15.4166 15.922 15.4166 15.7624C15.4166 15.437 15.366 15.2757 15.3377 15.2139ZM8.17937 8.52551C8.36971 8.86741 8.61208 9.12353 8.91111 9.31551L8.2358 10.3674L8.91111 9.31551C9.19332 9.49669 9.4885 9.58333 9.82463 9.58333C10.1607 9.58333 10.4559 9.49669 10.7381 9.31551C11.035 9.1249 11.2679 8.87251 11.4447 8.5362L11.4503 8.52546L11.4562 8.51484C11.6403 8.18056 11.7327 7.82372 11.7327 7.42346V5.90987C11.7327 5.49033 11.6378 5.12721 11.4562 4.79732L11.4503 4.78669L11.4447 4.77595C11.2704 4.44445 11.0443 4.20578 10.7603 4.03173L10.7491 4.02489L10.7381 4.01782C10.4559 3.83665 10.1607 3.75 9.82463 3.75C9.4885 3.75 9.19332 3.83665 8.91111 4.01782L8.9001 4.02489L8.88894 4.03173C8.6026 4.20721 8.36702 4.4497 8.17937 4.78663C8.00764 5.11743 7.91658 5.48483 7.91658 5.90987V7.42346C7.91658 7.82968 8.00549 8.19073 8.17937 8.52551Z" fill="#1A1A1A"/>
</svg>
