<svg width="28" height="28" viewBox="0 0 28 28" fill="none" xmlns="http://www.w3.org/2000/svg">
<path fill-rule="evenodd" clip-rule="evenodd" d="M10.8875 4.04842C10.7012 4.15168 10.6339 4.3864 10.7372 4.57268L11.5902 6.11162C10.0513 6.98968 9.02588 8.56131 9.02588 10.354H19.824C19.824 8.56133 18.7986 6.98971 17.2597 6.11165L18.1128 4.57268C18.2161 4.3864 18.1487 4.15168 17.9625 4.04842C17.7762 3.94516 17.5415 4.01247 17.4382 4.19875L16.5636 5.77653C15.9078 5.51511 15.1847 5.37025 14.425 5.37025C13.6652 5.37025 12.9421 5.5151 12.2863 5.77651L11.4118 4.19875C11.3085 4.01247 11.0738 3.94516 10.8875 4.04842ZM21.6336 10.354C20.8963 10.354 20.2987 10.958 20.2987 11.703V16.4807C20.2987 17.2257 20.8963 17.8296 21.6336 17.8296C22.3709 17.8296 22.9685 17.2257 22.9685 16.4807V11.703C22.9685 10.958 22.3709 10.354 21.6336 10.354ZM17.8661 19.9062H18.5188C19.2397 19.9062 19.8241 19.3218 19.8241 18.6009V10.7693H9.02591V18.6009C9.02591 19.3218 9.6103 19.9062 10.3312 19.9062H10.9837V22.5761C10.9837 23.3625 11.6212 24 12.4076 24C13.1941 24 13.8316 23.3625 13.8316 22.5761V19.9062H15.0182V22.5761C15.0182 23.3625 15.6557 24 16.4422 24C17.2286 24 17.8661 23.3625 17.8661 22.5761V19.9062ZM8.66987 11.703C8.66987 10.958 8.0722 10.354 7.33494 10.354C6.59767 10.354 6 10.958 6 11.703V16.4807C6 17.2257 6.59767 17.8296 7.33494 17.8296C8.0722 17.8296 8.66987 17.2257 8.66987 16.4807V11.703ZM16.9168 7.47053C16.6678 7.47053 16.4659 7.67241 16.4659 7.92144C16.4659 8.17047 16.6678 8.37235 16.9168 8.37235C17.1659 8.37235 17.3677 8.17047 17.3677 7.92144C17.3677 7.67241 17.1659 7.47053 16.9168 7.47053ZM11.933 7.47054C11.684 7.47054 11.4821 7.67242 11.4821 7.92145C11.4821 8.17048 11.684 8.37236 11.933 8.37236C12.1821 8.37236 12.3839 8.17048 12.3839 7.92145C12.3839 7.67242 12.1821 7.47054 11.933 7.47054Z" fill="#A4C639"/>
</svg>