<svg width="28" height="29" viewBox="0 0 28 29" fill="none" xmlns="http://www.w3.org/2000/svg">
<rect x="3.5" y="3.69543" width="21" height="21" rx="5" fill="#666666"/>
<path d="M9.57587 18.3954C9.41325 18.3973 9.2538 18.3485 9.11801 18.2553C8.98222 18.1621 8.87629 18.0288 8.81381 17.8725C8.75133 17.7161 8.73517 17.5439 8.76739 17.378C8.79961 17.212 8.87875 17.0599 8.99464 16.9411L11.6459 14.2055L8.99464 11.4455C8.84211 11.2849 8.75711 11.0678 8.75836 10.8419C8.7596 10.616 8.84698 10.4 9.00127 10.2412C9.15555 10.0824 9.36412 9.9939 9.58107 9.99519C9.79803 9.99649 10.0056 10.0874 10.1581 10.2481L13.3488 13.61C13.5011 13.7691 13.5865 13.9846 13.5865 14.2092C13.5865 14.4338 13.5011 14.6493 13.3488 14.8085L10.1581 18.1428C10.082 18.223 9.99138 18.2867 9.89141 18.3301C9.79144 18.3734 9.68418 18.3957 9.57587 18.3954Z" fill="white"/>
<path d="M18.4107 18.3954H13.8924C13.6749 18.3954 13.4664 18.3055 13.3126 18.1455C13.1589 17.9854 13.0725 17.7683 13.0725 17.542C13.0725 17.3156 13.1589 17.0985 13.3126 16.9385C13.4664 16.7784 13.6749 16.6885 13.8924 16.6885H18.4301C18.6475 16.6885 18.8561 16.7784 19.0098 16.9385C19.1636 17.0985 19.2499 17.3156 19.2499 17.542C19.2499 17.7683 19.1636 17.9854 19.0098 18.1455C18.8561 18.3055 18.6475 18.3954 18.4301 18.3954H18.4107Z" fill="white"/>
</svg>
