<svg width="28" height="28" viewBox="0 0 28 28" fill="none" xmlns="http://www.w3.org/2000/svg">
<g clip-path="url(#clip0_8_2133)">
<path d="M16.0205 4.30075L22.0256 4.29413L11.9506 14.364L9.3249 16.975L6.3374 13.9838L16.0205 4.30075ZM15.9646 13.2919C16.0426 13.189 16.1859 13.2397 16.2948 13.2265L22.0205 13.228L16.8021 18.4412L13.7992 15.4566L15.9646 13.2919Z" fill="#44D1FD"/>
<path d="M10.8059 18.4463L13.7993 15.4566L16.8022 18.4412L16.8147 18.4544L13.8 21.4412L10.8059 18.4463Z" fill="#1FBCFD"/>
<path d="M13.8 21.4412L16.8148 18.4544L22.0228 23.6676C20.0611 23.6721 18.1 23.6662 16.139 23.6706C16.0273 23.6956 15.9581 23.5934 15.8868 23.5301L13.8 21.4412Z" fill="#08589C"/>
</g>
<defs>
<clipPath id="clip0_8_2133">
<rect width="16.3971" height="20" fill="white" transform="translate(6 4)"/>
</clipPath>
</defs>
</svg>
