<svg width="28" height="28" viewBox="0 0 28 28" fill="none" xmlns="http://www.w3.org/2000/svg">
<path d="M21.7636 9.81868C21.6476 9.90869 19.5994 11.0628 19.5994 13.6291C19.5994 16.5974 22.2056 17.6475 22.2836 17.6735C22.2716 17.7375 21.8696 19.1116 20.9095 20.5118C20.0534 21.7439 19.1593 22.974 17.7992 22.974C16.439 22.974 16.089 22.1839 14.5189 22.1839C12.9887 22.1839 12.4446 23 11.2005 23C9.9564 23 9.08831 21.8599 8.09021 20.4597C6.93409 18.8156 6 16.2613 6 13.8371C6 9.94869 8.52825 7.88649 11.0165 7.88649C12.3386 7.88649 13.4407 8.75458 14.2708 8.75458C15.0609 8.75458 16.293 7.83448 17.7972 7.83448C18.3672 7.83448 20.4154 7.88649 21.7636 9.81868ZM17.0831 6.18832C17.7052 5.45024 18.1452 4.42614 18.1452 3.40204C18.1452 3.26003 18.1332 3.11601 18.1072 3C17.0951 3.038 15.891 3.67407 15.1649 4.51615C14.5949 5.16422 14.0628 6.18832 14.0628 7.22642C14.0628 7.38244 14.0888 7.53845 14.1008 7.58846C14.1648 7.60046 14.2688 7.61446 14.3728 7.61446C15.2809 7.61446 16.423 7.0064 17.0831 6.18832Z" fill="black"/>
</svg>
