<svg width="24" height="24" viewBox="0 0 24 24" fill="none" xmlns="http://www.w3.org/2000/svg">
<path fill-rule="evenodd" clip-rule="evenodd" d="M12.0341 6.41187C16.5909 2.81444 14.2522 0.474976 14.2522 0.474976C14.8819 2.95465 13.1901 4.27934 11.5366 5.57399C10.7122 6.21953 9.89728 6.8576 9.38445 7.62767C8.33432 9.20438 9.89962 10.8985 12.0326 12.8229C11.844 12.3967 11.5532 11.9825 11.2588 11.5632C10.2546 10.1332 9.20847 8.64336 12.0341 6.41187ZM12.7615 13.6119C12.7615 13.6119 14.1325 12.4871 13.0468 11.2371C9.36654 6.99655 17.0719 5.07211 17.0719 5.07211C12.3739 7.79681 13.0026 8.67016 14.1018 10.197C14.1511 10.2655 14.2014 10.3353 14.2522 10.4067C15.5183 12.1888 12.7615 13.6119 12.7615 13.6119Z" fill="#F8981D"/>
<path fill-rule="evenodd" clip-rule="evenodd" d="M16.7981 16.9659C21.021 14.7716 19.0685 12.6628 17.7057 12.9469C17.3717 13.0165 17.2227 13.0767 17.2227 13.0767C17.2227 13.0767 17.3467 12.8824 17.5836 12.7984C20.2796 11.8505 22.3531 15.5939 16.7133 17.0765C16.7133 17.0765 16.7786 17.0182 16.7981 16.9659ZM8.01117 14.1885C5.36905 13.8356 9.45981 12.864 9.45981 12.864C9.45981 12.864 7.87121 12.7569 5.91741 13.7013C3.60713 14.8188 11.6321 15.3271 15.7862 14.2346C16.2181 13.9397 16.815 13.684 16.815 13.684C16.815 13.684 15.1151 13.9876 13.4221 14.1305C11.3506 14.304 9.12676 14.3378 8.01117 14.1885ZM9.01639 16.2837C7.54305 16.1314 8.50776 15.4173 8.50776 15.4173C4.69527 16.6826 10.6289 18.1176 15.9563 16.5598C15.39 16.3601 15.0299 15.995 15.0299 15.995C12.4263 16.4964 10.9217 16.4803 9.01639 16.2837ZM9.6583 18.551C8.18606 18.3817 9.04618 17.8815 9.04618 17.8815C5.58537 18.8485 11.1512 20.8463 15.5574 18.9579C14.8357 18.6773 14.319 18.3532 14.319 18.3532C12.3534 18.7253 11.4419 18.7544 9.6583 18.551ZM18.8742 19.7042C18.8742 19.7042 19.5108 20.2287 18.1733 20.6344C15.63 21.4049 7.58777 21.6375 5.35369 20.6651C4.55059 20.3158 6.05663 19.8309 6.53037 19.7292C7.02443 19.622 7.30677 19.642 7.30677 19.642C6.41365 19.0128 1.53398 20.8774 4.82814 21.4114C13.8118 22.8683 21.2045 20.7553 18.8742 19.7042ZM20.3 20.8501C20.1526 22.7681 13.9281 23.1715 9.87475 22.9121C7.21073 22.7412 6.69264 22.3124 6.69264 22.3124C9.22344 22.7297 13.4904 22.8057 16.9501 22.1546C20.0166 21.5772 20.3 20.8501 20.3 20.8501Z" fill="#5382A1"/>
</svg>
