<svg width="28" height="28" viewBox="0 0 28 28" fill="none" xmlns="http://www.w3.org/2000/svg">
<g clip-path="url(#clip0_8_2122)">
<path d="M14.0001 15.8118C14.8862 15.8118 15.6044 15.0935 15.6044 14.2074C15.6044 13.3214 14.8862 12.6031 14.0001 12.6031C13.114 12.6031 12.3958 13.3214 12.3958 14.2074C12.3958 15.0935 13.114 15.8118 14.0001 15.8118Z" fill="#61DAFB"/>
<path d="M14.0001 17.4944C18.7545 17.4944 22.6087 16.0228 22.6087 14.2075C22.6087 12.3922 18.7545 10.9205 14.0001 10.9205C9.2456 10.9205 5.39136 12.3922 5.39136 14.2075C5.39136 16.0228 9.2456 17.4944 14.0001 17.4944Z" stroke="#61DAFB" stroke-width="0.8"/>
<path d="M11.1534 15.8509C13.5306 19.9684 16.7322 22.5705 18.3043 21.6628C19.8765 20.7552 19.2238 16.6815 16.8466 12.564C14.4694 8.44652 11.2678 5.84445 9.69565 6.75212C8.12352 7.65979 8.77618 11.7335 11.1534 15.8509Z" stroke="#61DAFB" stroke-width="0.8"/>
<path d="M11.1534 12.564C8.77613 16.6814 8.12347 20.7551 9.6956 21.6628C11.2677 22.5705 14.4693 19.9684 16.8465 15.8509C19.2238 11.7334 19.8764 7.65976 18.3043 6.75209C16.7322 5.84442 13.5306 8.44649 11.1534 12.564Z" stroke="#61DAFB" stroke-width="0.8"/>
</g>
<defs>
<clipPath id="clip0_8_2122">
<rect width="18" height="16.0149" fill="white" transform="translate(5 6.20001)"/>
</clipPath>
</defs>
</svg>