<svg width="24" height="24" viewBox="0 0 24 24" fill="none" xmlns="http://www.w3.org/2000/svg">
<path fill-rule="evenodd" clip-rule="evenodd" d="M1 15.4454C1 17.6629 2.78278 19.4641 4.99327 19.4937V19.4941H5.03823L5.04874 19.4941L5.05925 19.4941L18.9328 19.4941L18.9512 19.4941C21.1873 19.4941 23 17.6814 23 15.4454C23 13.5515 21.6997 11.9614 19.9432 11.519C19.9596 11.3819 19.9681 11.2424 19.9681 11.1008C19.9681 9.18128 18.412 7.62519 16.4924 7.62519C16.1291 7.62519 15.7788 7.68094 15.4496 7.78437C14.297 6.103 12.3622 5 10.1698 5C6.637 5 3.77313 7.86387 3.77313 11.3966C3.77313 11.4649 3.7742 11.5329 3.77632 11.6006C2.16362 12.1341 1 13.6538 1 15.4454ZM18.8625 12.8681L19.0047 12.4689C19.2562 12.5382 19.4531 12.6366 19.5953 12.7642C19.7374 12.89 19.8377 13.0367 19.896 13.2044C19.9543 13.3703 19.9835 13.5489 19.9835 13.7403V14.3008C19.9835 14.4211 20.0008 14.5259 20.0355 14.6152C20.0701 14.7027 20.1248 14.7711 20.1995 14.8203C20.2742 14.8677 20.3718 14.8914 20.4921 14.8914V15.0226V15.2742V15.4054C20.3134 15.4054 20.184 15.4592 20.1038 15.5667C20.0236 15.6724 19.9835 15.8155 19.9835 15.996V16.5538C19.9835 16.7452 19.9543 16.9238 19.896 17.0897C19.8377 17.2574 19.7374 17.4041 19.5953 17.5299C19.4531 17.6575 19.2562 17.7568 19.0047 17.8279L18.8625 17.4232C18.981 17.3831 19.073 17.3202 19.1387 17.2346C19.2061 17.1489 19.2535 17.0477 19.2808 16.9311C19.3082 16.8162 19.3218 16.6905 19.3218 16.5538V15.996C19.3218 15.8101 19.361 15.6442 19.4394 15.4984C19.5196 15.3507 19.6463 15.235 19.8195 15.1511L19.8223 15.1498L19.8195 15.1484C19.6463 15.0627 19.5196 14.9461 19.4394 14.7984C19.361 14.649 19.3218 14.4831 19.3218 14.3008V13.7403C19.3218 13.6036 19.3082 13.4769 19.2808 13.3602C19.2553 13.2436 19.2088 13.1433 19.1414 13.0595C19.0739 12.9738 18.981 12.91 18.8625 12.8681ZM17.4216 13.4477V16.8353H16.6724V13.4477H15.4503V12.8544H16.6724H17.4216H18.6574V13.4477H17.4216ZM14.3429 15.5968C14.3666 15.657 14.3785 15.7253 14.3785 15.8019C14.3785 15.9003 14.3529 15.9878 14.3019 16.0644C14.2527 16.1409 14.1779 16.2011 14.0777 16.2448C13.9793 16.2867 13.8535 16.3077 13.7004 16.3077C13.5819 16.3077 13.4716 16.295 13.3695 16.2694C13.2675 16.2439 13.1782 16.2038 13.1016 16.1491C13.0269 16.0926 12.9685 16.0206 12.9266 15.9331C12.8865 15.8438 12.8665 15.7363 12.8665 15.6105H12.1118C12.1118 15.8274 12.1574 16.017 12.2485 16.1792C12.3397 16.3396 12.4618 16.4727 12.6149 16.5784C12.768 16.6823 12.9385 16.7607 13.1262 16.8135C13.3158 16.8646 13.5072 16.8901 13.7004 16.8901C13.9173 16.8901 14.1132 16.8655 14.2882 16.8163C14.465 16.7671 14.6163 16.6951 14.7421 16.6003C14.8679 16.5055 14.9645 16.3906 15.0319 16.2558C15.0994 16.1209 15.1331 15.9678 15.1331 15.7964C15.1331 15.6342 15.1048 15.4893 15.0483 15.3617C14.9936 15.2341 14.9107 15.1193 14.7995 15.0172C14.6902 14.9151 14.5525 14.824 14.3867 14.7438C14.2226 14.6636 14.0312 14.5907 13.8125 14.525C13.6758 14.4831 13.5555 14.4412 13.4516 14.3993C13.3495 14.3555 13.2638 14.309 13.1946 14.2598C13.1253 14.2088 13.0733 14.155 13.0387 14.0985C13.0041 14.0402 12.9868 13.9746 12.9868 13.9016C12.9868 13.805 13.0114 13.7175 13.0606 13.6392C13.1116 13.5608 13.1873 13.4988 13.2875 13.4532C13.3896 13.4077 13.5172 13.3849 13.6703 13.3849C13.8289 13.3849 13.9601 13.4122 14.064 13.4669C14.1697 13.5216 14.2481 13.5963 14.2992 13.6911C14.352 13.7859 14.3785 13.8953 14.3785 14.0192H15.1276C15.1276 13.7895 15.0684 13.5827 14.9499 13.3986C14.8314 13.2145 14.6637 13.0686 14.4468 12.9611C14.2317 12.8535 13.9765 12.7998 13.6812 12.7998C13.468 12.7998 13.2729 12.8262 13.0961 12.8791C12.9211 12.9319 12.7689 13.0076 12.6395 13.106C12.5101 13.2026 12.4099 13.3183 12.3388 13.4532C12.2695 13.5881 12.2349 13.7376 12.2349 13.9016C12.2349 14.0693 12.2686 14.217 12.336 14.3446C12.4035 14.4703 12.4973 14.5815 12.6176 14.6781C12.7398 14.7748 12.881 14.8595 13.0414 14.9324C13.2018 15.0053 13.375 15.071 13.5609 15.1293C13.7286 15.1821 13.8653 15.2332 13.9711 15.2824C14.0786 15.3298 14.1615 15.379 14.2199 15.43C14.28 15.4793 14.321 15.5349 14.3429 15.5968ZM11.7728 16.2447V16.8353H9.88622H9.65655H9.13433V12.8544H9.65655H9.88622H11.7646V13.4477H9.88622V14.4976H11.4967V15.0745H9.88622V16.2447H11.7728ZM7.02079 12.8544H5.57442V16.8353H6.32631V15.3315H7.04464L7.82191 16.8353H8.62849V16.797L7.75021 15.1512C7.86386 15.1015 7.96614 15.0413 8.05704 14.9706C8.19011 14.8685 8.2931 14.7418 8.36601 14.5906C8.43892 14.4393 8.47537 14.2606 8.47537 14.0547C8.47537 13.794 8.41704 13.5744 8.30039 13.3957C8.18373 13.2171 8.01694 13.0822 7.80003 12.9911C7.58312 12.8999 7.32338 12.8544 7.02079 12.8544ZM7.029 14.7382H6.32631V13.4477H7.02079C7.17938 13.4477 7.31062 13.4741 7.41451 13.527C7.51841 13.5798 7.59588 13.6555 7.64692 13.7539C7.69796 13.8505 7.72348 13.9653 7.72348 14.0984C7.72348 14.2224 7.69705 14.3326 7.64419 14.4292C7.59315 14.5258 7.51659 14.6015 7.41451 14.6562C7.31244 14.7109 7.18393 14.7382 7.029 14.7382ZM4.96197 12.4689L5.10415 12.8681C4.92734 12.9301 4.80612 13.0404 4.7405 13.199C4.67671 13.3557 4.64481 13.5362 4.64481 13.7403V14.3008C4.64481 14.4831 4.60471 14.649 4.5245 14.7984C4.44852 14.9433 4.32886 15.06 4.16552 15.1483C4.32886 15.235 4.44852 15.3508 4.5245 15.4957C4.60471 15.6433 4.64481 15.8101 4.64481 15.996V16.5538C4.64481 16.6905 4.65848 16.8163 4.68582 16.9311C4.71499 17.0478 4.76238 17.1489 4.828 17.2346C4.89544 17.3203 4.98749 17.3832 5.10415 17.4233L4.96197 17.8279C4.71407 17.7568 4.51812 17.6575 4.37413 17.5299C4.23195 17.4041 4.13078 17.2574 4.07063 17.0897C4.0123 16.9238 3.98314 16.7452 3.98314 16.5538V15.996C3.98314 15.8757 3.96582 15.7718 3.93119 15.6843C3.89656 15.595 3.84187 15.5266 3.76714 15.4793C3.69423 15.43 3.59762 15.4054 3.47732 15.4054V15.2879V15.0062V14.8914C3.65777 14.8914 3.78719 14.8385 3.86557 14.7328C3.94395 14.6253 3.98314 14.4813 3.98314 14.3008V13.7403C3.98314 13.5489 4.0123 13.3703 4.07063 13.2044C4.13078 13.0367 4.23195 12.89 4.37413 12.7642C4.51812 12.6366 4.71407 12.5382 4.96197 12.4689Z" fill="#002B51"/>
</svg>
