<svg width="28" height="28" viewBox="0 0 28 28" fill="none" xmlns="http://www.w3.org/2000/svg">
<path d="M14.666 7.57822L17.8451 9.40562C17.9593 9.46978 17.9635 9.64777 17.8451 9.71193L14.0676 11.8849C13.9533 11.9512 13.8183 11.947 13.7123 11.8849L9.93481 9.71193C9.81845 9.64983 9.81638 9.46772 9.93481 9.40562L13.1118 7.57822V4L5 8.66473V17.9942L8.11049 16.2062V12.5513C8.10841 12.4209 8.26217 12.3278 8.37645 12.3982L12.1539 14.5712C12.2682 14.6374 12.3326 14.7554 12.3326 14.8775V19.2214C12.3347 19.3518 12.1809 19.4449 12.0667 19.3746L8.88759 17.5472L5.7771 19.3352L13.8889 24L22.0007 19.3352L18.8902 17.5472L15.7112 19.3746C15.5989 19.4429 15.441 19.3539 15.4452 19.2214V14.8775C15.4452 14.7471 15.5179 14.6312 15.6238 14.5712L19.4013 12.3982C19.5135 12.3299 19.6714 12.4168 19.6673 12.5513V16.2062L22.7778 17.9942V8.66473L14.666 4V7.57822Z" fill="#333333"/>
</svg>
