
<svg width="28" height="28" viewBox="0 0 28 28" fill="none" xmlns="http://www.w3.org/2000/svg">
<g clip-path="url(#clip0_8_2083)">
<path d="M14 18.9978C16.7614 18.9978 19 16.7592 19 13.9978C19 11.2364 16.7614 8.9978 14 8.9978C11.2386 8.9978 9 11.2364 9 13.9978C9 16.7592 11.2386 18.9978 14 18.9978Z" fill="white"/>
<path d="M14 9.00002H22.6589C21.7814 7.47976 20.5192 6.21731 18.9991 5.3396C17.4791 4.4619 15.7547 3.99988 13.9994 4C12.2441 4.00012 10.5198 4.46238 8.99979 5.3403C7.47982 6.21822 6.21778 7.48085 5.34058 9.00123L9.66999 16.5L9.67387 16.499C9.23345 15.7395 9.00104 14.8774 9.00005 13.9995C8.99906 13.1215 9.22954 12.2589 9.66825 11.4984C10.107 10.7379 10.7384 10.1066 11.4989 9.66795C12.2594 9.22932 13.1221 8.99894 14 9.00002Z" fill="url(#paint0_linear_8_2083)"/>
<path d="M14.0001 17.9584C16.1862 17.9584 17.9584 16.1861 17.9584 14C17.9584 11.8139 16.1862 10.0417 14.0001 10.0417C11.814 10.0417 10.0417 11.8139 10.0417 14C10.0417 16.1861 11.814 17.9584 14.0001 17.9584Z" fill="#1A73E8"/>
<path d="M18.3297 16.5012L14.0003 24C15.7556 24.0002 17.48 23.5383 19.0002 22.6607C20.5203 21.7831 21.7826 20.5208 22.6602 19.0006C23.5377 17.4804 23.9995 15.756 23.9992 14.0007C23.9989 12.2454 23.5364 10.5212 22.6584 9.00128H13.9996L13.9985 9.00516C14.8765 9.00346 15.7393 9.23325 16.5001 9.67136C17.261 10.1095 17.8928 10.7404 18.332 11.5006C18.7713 12.2607 19.0023 13.1233 19.0019 14.0012C19.0015 14.8791 18.7697 15.7414 18.3297 16.5012Z" fill="url(#paint1_linear_8_2083)"/>
<path d="M9.67028 16.5013L5.34087 9.0025C4.463 10.5225 4.0008 12.2468 4.00073 14.0021C4.00067 15.7574 4.46274 17.4818 5.34049 19.0019C6.21824 20.5219 7.48073 21.7841 9.00102 22.6615C10.5213 23.5389 12.2458 24.0005 14.0011 24L18.3305 16.5012L18.3277 16.4984C17.8902 17.2595 17.2597 17.8919 16.4999 18.3317C15.7401 18.7715 14.8778 19.0033 13.9998 19.0036C13.1219 19.0039 12.2594 18.7727 11.4993 18.3334C10.7392 17.8941 10.1083 17.2621 9.67028 16.5013Z" fill="url(#paint2_linear_8_2083)"/>
</g>
<defs>
<linearGradient id="paint0_linear_8_2083" x1="5.34058" y1="10.25" x2="22.6589" y2="10.25" gradientUnits="userSpaceOnUse">
<stop stop-color="#D93025"/>
<stop offset="1" stop-color="#EA4335"/>
</linearGradient>
<linearGradient id="paint1_linear_8_2083" x1="12.6342" y1="23.8663" x2="21.2933" y2="8.8682" gradientUnits="userSpaceOnUse">
<stop stop-color="#FCC934"/>
<stop offset="1" stop-color="#FBBC04"/>
</linearGradient>
<linearGradient id="paint2_linear_8_2083" x1="15.0826" y1="23.3756" x2="6.42341" y2="8.3775" gradientUnits="userSpaceOnUse">
<stop stop-color="#1E8E3E"/>
<stop offset="1" stop-color="#34A853"/>
</linearGradient>
<clipPath id="clip0_8_2083">
<rect width="20" height="20" fill="white" transform="translate(4 4)"/>
</clipPath>
</defs>
</svg>